<?xml version="1.0" encoding="utf-8"?>
<!-- Generator: Adobe Illustrator 25.2.0, SVG Export Plug-In . SVG Version: 6.00 Build 0)  -->
<svg version="1.1" id="Layer_1" xmlns="http://www.w3.org/2000/svg" xmlns:xlink="http://www.w3.org/1999/xlink" x="0px" y="0px"
	 viewBox="0 0 1400 500" style="enable-background:new 0 0 1400 500;" xml:space="preserve">
<style type="text/css">
	.st0{fill:none;stroke:#EABF0C;stroke-miterlimit:10;}
	.st1{fill:none;stroke:#EABE0C;stroke-miterlimit:10;}
	.st2{fill:none;stroke:#EABD0C;stroke-miterlimit:10;}
	.st3{fill:none;stroke:#EABC0D;stroke-miterlimit:10;}
	.st4{fill:none;stroke:#EABB0D;stroke-miterlimit:10;}
	.st5{fill:none;stroke:#EABA0D;stroke-miterlimit:10;}
	.st6{fill:none;stroke:#EAB90E;stroke-miterlimit:10;}
	.st7{fill:none;stroke:#EAB80E;stroke-miterlimit:10;}
	.st8{fill:none;stroke:#EAB70E;stroke-miterlimit:10;}
	.st9{fill:none;stroke:#EAB60E;stroke-miterlimit:10;}
	.st10{fill:none;stroke:#EAB50F;stroke-miterlimit:10;}
	.st11{fill:none;stroke:#EAB40F;stroke-miterlimit:10;}
	.st12{fill:none;stroke:#EAB30F;stroke-miterlimit:10;}
	.st13{fill:none;stroke:#EAB210;stroke-miterlimit:10;}
	.st14{fill:none;stroke:#EAB110;stroke-miterlimit:10;}
	.st15{fill:none;stroke:#EAB010;stroke-miterlimit:10;}
	.st16{fill:none;stroke:#EAAF10;stroke-miterlimit:10;}
	.st17{fill:none;stroke:#EAAE11;stroke-miterlimit:10;}
	.st18{fill:none;stroke:#EAAD11;stroke-miterlimit:10;}
	.st19{fill:none;stroke:#EAAC11;stroke-miterlimit:10;}
	.st20{fill:none;stroke:#EAAB12;stroke-miterlimit:10;}
	.st21{fill:none;stroke:#EAAA12;stroke-miterlimit:10;}
	.st22{fill:none;stroke:#EAA912;stroke-miterlimit:10;}
	.st23{fill:none;stroke:#EAA812;stroke-miterlimit:10;}
	.st24{fill:none;stroke:#EAA713;stroke-miterlimit:10;}
	.st25{fill:none;stroke:#EAA613;stroke-miterlimit:10;}
	.st26{fill:none;stroke:#EAA513;stroke-miterlimit:10;}
	.st27{fill:none;stroke:#EAA414;stroke-miterlimit:10;}
	.st28{fill:none;stroke:#EAA314;stroke-miterlimit:10;}
	.st29{fill:none;stroke:#EAA214;stroke-miterlimit:10;}
	.st30{fill:none;stroke:#EAA114;stroke-miterlimit:10;}
	.st31{fill:none;stroke:#EAA015;stroke-miterlimit:10;}
	.st32{fill:none;stroke:#EA9F15;stroke-miterlimit:10;}
	.st33{fill:none;stroke:#EA9E15;stroke-miterlimit:10;}
	.st34{fill:none;stroke:#EA9D16;stroke-miterlimit:10;}
	.st35{fill:none;stroke:#EA9C16;stroke-miterlimit:10;}
	.st36{fill:none;stroke:#EA9B16;stroke-miterlimit:10;}
	.st37{fill:none;stroke:#EA9A16;stroke-miterlimit:10;}
	.st38{fill:none;stroke:#EA9917;stroke-miterlimit:10;}
	.st39{fill:none;stroke:#EA9817;stroke-miterlimit:10;}
	.st40{fill:none;stroke:#EA9717;stroke-miterlimit:10;}
	.st41{fill:none;stroke:#EA9618;stroke-miterlimit:10;}
	.st42{fill:none;stroke:#EA9518;stroke-miterlimit:10;}
	.st43{fill:none;stroke:#EA9418;stroke-miterlimit:10;}
	.st44{fill:none;stroke:#EA9318;stroke-miterlimit:10;}
	.st45{fill:none;stroke:#E99219;stroke-miterlimit:10;}
	.st46{fill:none;stroke:#E99119;stroke-miterlimit:10;}
	.st47{fill:none;stroke:#E99019;stroke-miterlimit:10;}
	.st48{fill:none;stroke:#E98F1A;stroke-miterlimit:10;}
	.st49{fill:none;stroke:#E98E1A;stroke-miterlimit:10;}
	.st50{fill:none;stroke:#E98D1A;stroke-miterlimit:10;}
	.st51{fill:none;stroke:#E98C1A;stroke-miterlimit:10;}
	.st52{fill:none;stroke:#E98B1B;stroke-miterlimit:10;}
	.st53{fill:none;stroke:#E98A1B;stroke-miterlimit:10;}
	.st54{fill:none;stroke:#E9891B;stroke-miterlimit:10;}
	.st55{fill:none;stroke:#E9881C;stroke-miterlimit:10;}
	.st56{fill:none;stroke:#E9871C;stroke-miterlimit:10;}
	.st57{fill:none;stroke:#E9861C;stroke-miterlimit:10;}
	.st58{fill:none;stroke:#E9851C;stroke-miterlimit:10;}
	.st59{fill:none;stroke:#E9841D;stroke-miterlimit:10;}
	.st60{fill:none;stroke:#E9831D;stroke-miterlimit:10;}
	.st61{fill:none;stroke:#E9821D;stroke-miterlimit:10;}
	.st62{fill:none;stroke:#E9811E;stroke-miterlimit:10;}
	.st63{fill:none;stroke:#E9801E;stroke-miterlimit:10;}
	.st64{fill:none;stroke:#E97F1E;stroke-miterlimit:10;}
	.st65{fill:none;stroke:#E97E1E;stroke-miterlimit:10;}
	.st66{fill:none;stroke:#E97D1F;stroke-miterlimit:10;}
	.st67{fill:none;stroke:#E97C1F;stroke-miterlimit:10;}
	.st68{fill:none;stroke:#E97B1F;stroke-miterlimit:10;}
	.st69{fill:none;stroke:#E97A20;stroke-miterlimit:10;}
	.st70{fill:none;stroke:#E97920;stroke-miterlimit:10;}
	.st71{fill:none;stroke:#E97820;stroke-miterlimit:10;}
	.st72{fill:none;stroke:#E97720;stroke-miterlimit:10;}
	.st73{fill:none;stroke:#E97621;stroke-miterlimit:10;}
	.st74{fill:none;stroke:#E97521;stroke-miterlimit:10;}
	.st75{fill:none;stroke:#E97421;stroke-miterlimit:10;}
	.st76{fill:none;stroke:#E97322;stroke-miterlimit:10;}
	.st77{fill:none;stroke:#E97222;stroke-miterlimit:10;}
	.st78{fill:none;stroke:#E97122;stroke-miterlimit:10;}
	.st79{fill:none;stroke:#E97022;stroke-miterlimit:10;}
	.st80{fill:none;stroke:#E96F23;stroke-miterlimit:10;}
	.st81{fill:none;stroke:#E96E23;stroke-miterlimit:10;}
	.st82{fill:none;stroke:#E96D23;stroke-miterlimit:10;}
	.st83{fill:none;stroke:#E96C24;stroke-miterlimit:10;}
	.st84{fill:none;stroke:#E96B24;stroke-miterlimit:10;}
	.st85{fill:none;stroke:#E96A24;stroke-miterlimit:10;}
	.st86{fill:none;stroke:#E96924;stroke-miterlimit:10;}
	.st87{fill:none;stroke:#E96825;stroke-miterlimit:10;}
	.st88{fill:none;stroke:#E96725;stroke-miterlimit:10;}
	.st89{fill:none;stroke:#E96625;stroke-miterlimit:10;}
	.st90{fill:none;stroke:#E96526;stroke-miterlimit:10;}
	.st91{fill:none;stroke:#E96426;stroke-miterlimit:10;}
	.st92{fill:none;stroke:#E96326;stroke-miterlimit:10;}
	.st93{fill:none;stroke:#E96226;stroke-miterlimit:10;}
	.st94{fill:none;stroke:#E96127;stroke-miterlimit:10;}
	.st95{fill:none;stroke:#E96027;stroke-miterlimit:10;}
	.st96{fill:none;stroke:#E95F27;stroke-miterlimit:10;}
	.st97{fill:none;stroke:#E95E28;stroke-miterlimit:10;}
	.st98{fill:none;stroke:#E95D28;stroke-miterlimit:10;}
	.st99{fill:none;stroke:#E95C28;stroke-miterlimit:10;}
	.st100{fill:none;stroke:#E95B28;stroke-miterlimit:10;}
	.st101{fill:none;stroke:#E95A29;stroke-miterlimit:10;}
	.st102{fill:none;stroke:#E95929;stroke-miterlimit:10;}
	.st103{fill:none;stroke:#E95829;stroke-miterlimit:10;}
	.st104{fill:none;stroke:#E9572A;stroke-miterlimit:10;}
	.st105{fill:none;stroke:#E9562A;stroke-miterlimit:10;}
	.st106{fill:none;stroke:#E9552A;stroke-miterlimit:10;}
	.st107{fill:none;stroke:#E9542A;stroke-miterlimit:10;}
	.st108{fill:none;stroke:#E9532B;stroke-miterlimit:10;}
	.st109{fill:none;stroke:#E9522B;stroke-miterlimit:10;}
	.st110{fill:none;stroke:#E9512B;stroke-miterlimit:10;}
	.st111{fill:none;stroke:#E9502C;stroke-miterlimit:10;}
	.st112{fill:none;stroke:#E94F2C;stroke-miterlimit:10;}
	.st113{fill:none;stroke:#E94E2C;stroke-miterlimit:10;}
	.st114{fill:none;stroke:#E94D2C;stroke-miterlimit:10;}
	.st115{fill:none;stroke:#E94C2D;stroke-miterlimit:10;}
	.st116{fill:none;stroke:#E94B2D;stroke-miterlimit:10;}
	.st117{fill:none;stroke:#E94A2D;stroke-miterlimit:10;}
	.st118{fill:none;stroke:#E9492E;stroke-miterlimit:10;}
	.st119{fill:none;stroke:#E9482E;stroke-miterlimit:10;}
	.st120{fill:none;stroke:#E9472E;stroke-miterlimit:10;}
	.st121{fill:none;stroke:#E9462E;stroke-miterlimit:10;}
	.st122{fill:none;stroke:#E9452F;stroke-miterlimit:10;}
	.st123{fill:none;stroke:#E9442F;stroke-miterlimit:10;}
	.st124{fill:none;stroke:#E9432F;stroke-miterlimit:10;}
	.st125{fill:none;stroke:#E94230;stroke-miterlimit:10;}
	.st126{fill:none;stroke:#E94130;stroke-miterlimit:10;}
	.st127{fill:none;stroke:#E94030;stroke-miterlimit:10;}
	.st128{fill:none;stroke:#E93F30;stroke-miterlimit:10;}
	.st129{fill:none;stroke:#E93E31;stroke-miterlimit:10;}
	.st130{fill:none;stroke:#E93D31;stroke-miterlimit:10;}
	.st131{fill:none;stroke:#E93C31;stroke-miterlimit:10;}
	.st132{fill:none;stroke:#E83B32;stroke-miterlimit:10;}
	.st133{fill:none;stroke:#E83A32;stroke-miterlimit:10;}
	.st134{fill:none;stroke:#E83932;stroke-miterlimit:10;}
	.st135{fill:none;stroke:#E83832;stroke-miterlimit:10;}
	.st136{fill:none;stroke:#E83733;stroke-miterlimit:10;}
	.st137{fill:none;stroke:#E83633;stroke-miterlimit:10;}
	.st138{fill:none;stroke:#E83533;stroke-miterlimit:10;}
	.st139{fill:none;stroke:#E83434;stroke-miterlimit:10;}
	.st140{fill:none;stroke:#E83334;stroke-miterlimit:10;}
	.st141{fill:none;stroke:#E83234;stroke-miterlimit:10;}
	.st142{fill:none;stroke:#E83134;stroke-miterlimit:10;}
	.st143{fill:none;stroke:#E83035;stroke-miterlimit:10;}
	.st144{fill:none;stroke:#E82F35;stroke-miterlimit:10;}
	.st145{fill:none;stroke:#E82E35;stroke-miterlimit:10;}
	.st146{fill:none;stroke:#E82D36;stroke-miterlimit:10;}
	.st147{fill:none;stroke:#E82C36;stroke-miterlimit:10;}
	.st148{fill:none;stroke:#E82B36;stroke-miterlimit:10;}
	.st149{fill:none;stroke:#E82A36;stroke-miterlimit:10;}
	.st150{fill:none;stroke:#E82937;stroke-miterlimit:10;}
	.st151{fill:none;stroke:#E82837;stroke-miterlimit:10;}
	.st152{fill:none;stroke:#E82737;stroke-miterlimit:10;}
	.st153{fill:none;stroke:#E82638;stroke-miterlimit:10;}
	.st154{fill:none;stroke:#E82538;stroke-miterlimit:10;}
	.st155{fill:none;stroke:#E82438;stroke-miterlimit:10;}
	.st156{fill:none;stroke:#E82338;stroke-miterlimit:10;}
	.st157{fill:none;stroke:#E82239;stroke-miterlimit:10;}
	.st158{fill:none;stroke:#E82139;stroke-miterlimit:10;}
	.st159{fill:none;stroke:#E82039;stroke-miterlimit:10;}
	.st160{fill:none;stroke:#E81F3A;stroke-miterlimit:10;}
	.st161{fill:none;stroke:#E81E3A;stroke-miterlimit:10;}
	.st162{fill:none;stroke:#E81D3A;stroke-miterlimit:10;}
	.st163{fill:none;stroke:#E81C3A;stroke-miterlimit:10;}
	.st164{fill:none;stroke:#E81B3B;stroke-miterlimit:10;}
	.st165{fill:none;stroke:#E81A3B;stroke-miterlimit:10;}
	.st166{fill:none;stroke:#E8193B;stroke-miterlimit:10;}
	.st167{fill:none;stroke:#E8183C;stroke-miterlimit:10;}
	.st168{fill:none;stroke:#E8173C;stroke-miterlimit:10;}
	.st169{fill:none;stroke:#E8163C;stroke-miterlimit:10;}
	.st170{fill:none;stroke:#E8153C;stroke-miterlimit:10;}
	.st171{fill:none;stroke:#E8143D;stroke-miterlimit:10;}
	.st172{fill:none;stroke:#E8133D;stroke-miterlimit:10;}
	.st173{fill:none;stroke:#E8123D;stroke-miterlimit:10;}
	.st174{fill:none;stroke:#E8113E;stroke-miterlimit:10;}
	.st175{fill:none;stroke:#E8103E;stroke-miterlimit:10;}
	.st176{fill:none;stroke:#E80F3E;stroke-miterlimit:10;}
</style>
<g>
	<path class="st0" d="M394.6,352.6c-4.6,0.8-34.9,6-52.5-7.6c-19.7-15.2-12.6-45.2,1.9-63.1c27.2-33.5,81.2-25.3,89.5-48.7
		c7.9-22.1-38.9-33.3-36.1-64.2c2.8-30.8,51.5-42.6,51.8-78.5c0.1-10.6-4.1-19.2-7.4-24.6"/>
	<path class="st1" d="M398.5,356.1c-4.5,1-34.1,6.9-51.7-6.4c-12.2-9.2-14.2-24.5-10.6-39.1c2.2-8.8,6.4-17.4,11.7-24.3
		c10.6-13.9,25.7-21.1,40.6-26.4c22-7.8,43.3-11.2,47.9-25.3c7.3-22.2-39.7-32.3-37.8-63.1c0.9-13.9,11.2-24.2,22.1-34.6
		c13.3-12.6,27.6-25.4,27.4-45c-0.1-10.6-4.4-19.1-7.9-24.5"/>
	<path class="st2" d="M402.4,359.6c-4.3,1.2-33.4,7.7-50.9-5.2c-12.1-9-14.2-24.2-10.9-38.9c2.1-8.9,6.1-17.7,11.2-24.8
		c10.2-14.2,25.1-21.9,40-27.8c21.9-8.6,43.2-12.6,47.4-26.8c6.7-22.4-40.4-31.3-39.4-61.9c0.5-13.9,10.4-24.3,21.1-34.9
		c12.9-12.9,26.9-26,26.2-45.7c-0.4-10.6-4.8-19-8.4-24.3"/>
	<path class="st3" d="M406.4,363c-4.2,1.4-32.7,8.5-50-4.1c-12.1-8.7-14.3-23.9-11.1-38.7c1.9-9,5.7-17.9,10.7-25.2
		c9.9-14.5,24.5-22.7,39.2-29.1c21.7-9.4,43.1-14,47-28.3c6.1-22.5-41.1-30.3-40.9-60.8c0.1-13.8,9.7-24.4,20-35.3
		c12.5-13.2,26.1-26.7,25-46.3c-0.6-10.6-5.2-18.9-8.8-24.2"/>
	<path class="st4" d="M410.3,366.3c-4,1.6-31.9,9.2-49.1-3c-11.9-8.5-14.3-23.7-11.4-38.5c1.8-9.1,5.4-18.2,10.2-25.7
		c9.5-14.9,23.9-23.5,38.5-30.5c21.6-10.2,43-15.4,46.4-29.8c5.5-22.6-41.8-29.2-42.4-59.6c-0.3-13.7,8.9-24.5,18.9-35.6
		c12.1-13.4,25.3-27.2,23.9-46.9c-0.8-10.6-5.5-18.8-9.2-24"/>
	<path class="st4" d="M412.6,369.5c-3.9,1.8-31.1,9.9-48.2-2c-11.8-8.2-14.3-23.4-11.6-38.3c1.6-9.2,5-18.4,9.7-26.1
		c9.1-15.2,23.3-24.3,37.8-31.7c21.4-11,42.8-16.7,45.9-31.2c4.9-22.7-42.5-28.2-43.9-58.4c-0.7-13.6,8.2-24.6,17.8-35.9
		c11.7-13.7,24.5-27.8,22.7-47.5c-1-10.5-5.9-18.7-9.7-23.8"/>
	<path class="st5" d="M414.9,372.6c-3.7,2-30.3,10.6-47.3-1c-11.7-8-14.2-23.2-11.8-38.1c1.5-9.3,4.7-18.6,9.1-26.5
		c8.7-15.5,22.6-25,37-33c21.2-11.7,42.6-18.1,45.3-32.7c4.3-22.7-43.1-27.2-45.3-57.2c-1-13.6,7.5-24.6,16.8-36.1
		c11.2-13.9,23.7-28.3,21.5-48c-1.2-10.5-6.2-18.6-10.1-23.7"/>
	<path class="st6" d="M417.2,375.7c-3.5,2.1-29.5,11.2-46.4-0.1c-11.6-7.8-14.2-23-12-38c1.4-9.4,4.4-18.8,8.6-26.9
		c8.3-15.7,21.9-25.7,36.2-34.2c21-12.5,42.3-19.4,44.7-34.1c3.7-22.8-43.7-26.2-46.7-56c-1.4-13.5,6.8-24.6,15.7-36.3
		c10.8-14.1,23-28.9,20.4-48.4c-1.4-10.5-6.5-18.4-10.5-23.5"/>
	<path class="st7" d="M419.6,378.6c-3.4,2.3-28.7,11.7-45.4,0.7c-11.5-7.6-14.2-22.8-12.2-37.9c1.2-9.5,4-19.1,8.1-27.3
		c7.9-16,21.3-26.4,35.3-35.4c20.8-13.2,42.1-20.8,44.1-35.5c3.2-22.8-44.2-25.2-48-54.7c-1.7-13.3,6.1-24.6,14.7-36.5
		c10.4-14.3,22.2-29.3,19.2-48.9c-1.6-10.4-6.9-18.3-10.9-23.3"/>
	<path class="st8" d="M422.1,381.6c-3.2,2.4-27.9,12.3-44.4,1.5c-11.3-7.4-14.1-22.6-12.4-37.7c1.1-9.5,3.7-19.3,7.5-27.7
		c7.5-16.3,20.6-27.1,34.5-36.6c20.5-14,41.8-22.1,43.5-36.8c2.6-22.9-44.7-24.2-49.2-53.5c-2.1-13.2,5.4-24.6,13.6-36.6
		c10-14.5,21.4-29.8,18-49.3c-1.8-10.4-7.2-18.2-11.2-23.1"/>
	<path class="st9" d="M424.6,384.4c-3,2.5-27.1,12.8-43.4,2.3c-11.2-7.2-14-22.4-12.5-37.6c0.9-9.6,3.3-19.5,7-28
		c7.1-16.5,19.9-27.7,33.6-37.7c20.3-14.7,41.5-23.3,42.8-38.2c2.1-22.9-45.2-23.2-50.4-52.2c-2.4-13.1,4.7-24.6,12.6-36.7
		c9.6-14.7,20.6-30.2,16.9-49.7c-2-10.4-7.5-18.1-11.6-22.9"/>
	<path class="st10" d="M427.2,387.2c-2.8,2.7-26.3,13.3-42.4,3c-11-7.1-14-22.3-12.7-37.5c0.8-9.7,3-19.7,6.5-28.4
		c6.7-16.7,19.2-28.3,32.7-38.8c20-15.4,41.1-24.6,42.1-39.5c1.5-22.9-45.6-22.2-51.6-50.9c-2.7-13,4-24.5,11.6-36.8
		c9.2-14.9,19.8-30.6,15.8-50c-2.2-10.3-7.8-17.9-12-22.8"/>
	<path class="st11" d="M429.8,389.9c-2.6,2.8-25.5,13.7-41.4,3.6c-10.9-6.9-13.9-22.1-12.8-37.4c0.7-9.8,2.6-19.8,5.9-28.7
		c6.3-17,18.5-28.9,31.8-39.9c19.7-16.1,40.7-25.9,41.4-40.8c1-22.8-46-21.2-52.7-49.6c-3-12.8,3.4-24.5,10.6-36.9
		c8.8-15,19-31,14.6-50.4c-2.4-10.3-8.1-17.8-12.3-22.6"/>
	<path class="st11" d="M432.5,392.6c-2.4,2.9-24.7,14.1-40.4,4.2c-10.8-6.8-13.8-22-13-37.3c0.5-9.9,2.3-20,5.4-29
		c5.9-17.2,17.7-29.5,30.9-40.9c19.4-16.8,40.3-27.1,40.6-42.1c0.5-22.8-46.4-20.2-53.8-48.3c-3.3-12.7,2.7-24.4,9.6-36.9
		c8.3-15.2,18.2-31.4,13.5-50.7c-2.5-10.2-8.4-17.7-12.7-22.4"/>
	<path class="st12" d="M435.3,395.2c-2.2,3-23.8,14.5-39.3,4.8c-10.6-6.6-13.7-21.9-13.1-37.3c0.4-9.9,1.9-20.2,4.8-29.3
		c5.5-17.4,17-30.1,29.9-42c19.1-17.5,39.9-28.3,39.9-43.3c-0.1-22.8-46.8-19.2-54.8-47c-3.6-12.6,2.1-24.3,8.6-36.9
		c7.9-15.3,17.4-31.7,12.4-50.9c-2.7-10.2-8.6-17.5-13-22.2"/>
	<path class="st13" d="M438.1,397.8c-2,3.1-23,14.8-38.3,5.3c-10.4-6.5-13.6-21.8-13.2-37.2c0.3-10,1.6-20.4,4.3-29.6
		c5.1-17.6,16.3-30.6,28.9-42.9c18.7-18.1,39.5-29.5,39.1-44.5c-0.6-22.7-47.2-18.2-55.8-45.7c-3.9-12.4,1.5-24.1,7.7-36.9
		c7.5-15.4,16.6-32,11.3-51.2c-2.9-10.1-8.9-17.4-13.3-22"/>
	<path class="st14" d="M441.1,400.3c-1.8,3.2-22.2,15.2-37.3,5.8c-10.3-6.4-13.5-21.7-13.3-37.2c0.1-10.1,1.2-20.5,3.7-29.9
		c4.7-17.7,15.5-31.1,28-43.9c18.4-18.8,39-30.7,38.3-45.7c-1.1-22.7-47.5-17.3-56.8-44.4c-4.2-12.2,0.8-24,6.7-36.8
		c7.1-15.5,15.8-32.3,10.2-51.4c-3-10.1-9.2-17.2-13.7-21.8"/>
	<path class="st15" d="M444,402.7c-1.6,3.3-21.4,15.4-36.2,6.2c-10.1-6.3-13.4-21.6-13.5-37.1c0-10.2,0.9-20.7,3.2-30.2
		c4.3-17.9,14.8-31.6,27-44.8c18-19.4,38.5-31.9,37.4-46.9c-1.6-22.6-47.8-16.3-57.7-43c-4.5-12.1,0.2-23.9,5.8-36.8
		c6.7-15.6,15.1-32.6,9.1-51.6c-3.2-10-9.4-17.1-14-21.6"/>
	<path class="st16" d="M447.1,405.1c-1.4,3.4-20.5,15.7-35.2,6.6c-10-6.2-13.3-21.6-13.6-37.1c-0.2-10.2,0.5-20.8,2.6-30.5
		c3.9-18.1,14-32.1,26-45.7c17.6-20,38-33,36.6-48c-2.1-22.5-48.1-15.3-58.6-41.7c-4.8-11.9-0.3-23.7,4.9-36.7
		c6.3-15.7,14.3-32.8,8-51.7c-3.4-10-9.7-16.9-14.3-21.4"/>
	<path class="st17" d="M450.3,407.4c-1.2,3.5-19.7,15.9-34.1,6.9c-9.8-6.1-13.2-21.5-13.7-37.1c-0.3-10.3,0.2-20.9,2.1-30.7
		c3.5-18.2,13.3-32.5,24.9-46.6c17.2-20.7,37.4-34.2,35.7-49.1c-2.6-22.4-48.3-14.4-59.4-40.3c-5-11.7-0.9-23.5,4-36.5
		c5.9-15.8,13.5-33,6.9-51.9c-3.5-9.9-9.9-16.8-14.6-21.2"/>
	<path class="st18" d="M456.2,409.7c-1,3.5-18.9,16.1-33.1,7.2c-9.7-6.1-13.1-21.5-13.7-37.1c-0.4-10.4-0.2-21.1,1.5-31
		c3.1-18.4,12.5-33,23.9-47.5c16.8-21.3,36.9-35.3,34.9-50.2c-3-22.3-48.6-13.4-60.2-39c-5.3-11.6-1.5-23.3,3.1-36.4
		c5.5-15.8,12.8-33.2,5.8-52c-3.7-9.9-10.2-16.6-14.9-21"/>
	<path class="st18" d="M462.2,411.9c-0.8,3.6-18.1,16.3-32,7.4c-9.5-6-13-21.5-13.8-37.1c-0.6-10.4-0.5-21.2,1-31.2
		c2.7-18.5,11.7-33.4,22.9-48.3c16.4-21.9,36.3-36.4,34-51.3c-3.5-22.2-48.8-12.5-61-37.6c-5.5-11.4-2.1-23.1,2.2-36.3
		c5.2-15.9,12-33.4,4.8-52.1c-3.8-9.8-10.4-16.5-15.1-20.8"/>
	<path class="st19" d="M468.2,414.1c-0.6,3.7-17.3,16.4-31,7.7c-9.3-6-12.9-21.5-13.9-37.1c-0.7-10.5-0.9-21.3,0.4-31.4
		c2.3-18.6,11-33.8,21.8-49.1c16-22.5,35.7-37.5,33-52.4c-4-22.1-49-11.5-61.7-36.3c-5.8-11.2-2.6-22.9,1.3-36.1
		c4.8-15.9,11.2-33.6,3.7-52.1c-4-9.7-10.6-16.3-15.4-20.6"/>
	<path class="st20" d="M474.2,416.2c-0.4,3.7-16.5,16.6-30,7.8c-9.2-5.9-12.8-21.5-14-37.1c-0.8-10.5-1.2-21.4-0.2-31.6
		c1.9-18.7,10.2-34.2,20.7-49.9c15.6-23,35.1-38.6,32.1-53.4c-4.4-22-49.1-10.6-62.4-34.9c-6-11-3.2-22.7,0.5-35.9
		c4.4-16,10.5-33.8,2.6-52.2c-4.1-9.7-10.9-16.2-15.7-20.4"/>
	<path class="st21" d="M480.3,418.2c-0.2,3.8-15.7,16.7-28.9,8c-9-5.9-12.6-21.5-14.1-37.1c-1-10.6-1.6-21.5-0.7-31.9
		c1.5-18.8,9.4-34.5,19.7-50.6c15.1-23.6,34.5-39.6,31.2-54.4c-4.9-21.8-49.3-9.7-63.1-33.5c-6.2-10.8-3.7-22.5-0.4-35.7
		c4-16,9.7-33.9,1.6-52.2c-4.3-9.6-11.1-16-16-20.2"/>
	<path class="st22" d="M486.5,420.2c0,3.8-14.9,16.7-27.9,8.1c-8.9-5.9-12.5-21.5-14.2-37.2c-1.1-10.7-1.9-21.7-1.3-32
		c1.1-18.9,8.6-34.9,18.6-51.4c14.7-24.2,33.8-40.7,30.2-55.4c-5.3-21.7-49.4-8.7-63.7-32.2c-6.5-10.6-4.2-22.2-1.2-35.4
		c3.6-16,9-34,0.6-52.2c-4.4-9.5-11.3-15.9-16.2-20"/>
	<path class="st23" d="M492.6,422.2c0.2,3.9-14.1,16.8-26.9,8.2c-8.7-5.8-12.4-21.6-14.3-37.2c-1.3-10.7-2.3-21.8-1.9-32.2
		c0.7-19,7.8-35.2,17.5-52.1c14.2-24.7,33.1-41.7,29.2-56.4c-5.7-21.5-49.6-7.8-64.3-30.8c-6.7-10.4-4.7-22-2.1-35.2
		c3.2-16,8.2-34.1-0.5-52.2c-4.5-9.5-11.5-15.7-16.5-19.8"/>
	<path class="st24" d="M498.9,424.1c0.4,3.9-13.3,16.8-25.9,8.2c-8.6-5.8-12.3-21.6-14.3-37.3c-1.4-10.8-2.6-21.8-2.4-32.4
		c0.3-19.1,7-35.5,16.3-52.7c13.7-25.3,32.4-42.7,28.2-57.3c-6.1-21.4-49.7-6.9-64.9-29.4c-6.9-10.2-5.2-21.7-2.9-34.9
		c2.9-16,7.5-34.2-1.5-52.2c-4.7-9.4-11.7-15.6-16.7-19.6"/>
	<path class="st25" d="M505.1,425.9c0.6,3.9-12.5,16.8-24.9,8.2c-8.4-5.8-12.2-21.7-14.4-37.3c-1.5-10.8-3-21.9-3-32.6
		c-0.1-19.2,6.2-35.8,15.2-53.4c13.2-25.8,31.7-43.7,27.2-58.3c-6.6-21.2-49.7-6-65.4-28.1c-7.1-10-5.7-21.4-3.7-34.6
		c2.5-16,6.7-34.3-2.5-52.1c-4.8-9.3-11.9-15.4-17-19.4"/>
	<path class="st25" d="M511,427.6c0.9,3.9-11.7,16.8-23.9,8.2c-8.3-5.8-12.1-21.7-14.5-37.4c-1.7-10.9-3.3-22-3.6-32.7
		c-0.5-19.2,5.4-36.1,14.1-54c12.7-26.3,31-44.7,26.2-59.2c-7-21-49.8-5.1-65.9-26.7c-7.3-9.8-6.2-21.2-4.4-34.4
		c2.1-16,6-34.3-3.5-52.1c-4.9-9.3-12.1-15.2-17.2-19.2"/>
	<path class="st26" d="M516.4,429.3c1.1,3.9-10.9,16.7-22.9,8.2c-8.1-5.8-12-21.8-14.6-37.5c-1.8-10.9-3.7-22.1-4.2-32.9
		c-0.9-19.3,4.6-36.3,12.9-54.6c12.2-26.8,30.2-45.6,25.1-60.1c-7.4-20.8-49.9-4.2-66.4-25.3c-7.5-9.6-6.7-20.9-5.2-34
		c1.8-16,5.2-34.4-4.5-52c-5.1-9.2-12.3-15.1-17.5-19"/>
	<path class="st27" d="M521.9,431c1.3,4-10.2,16.7-21.9,8.1c-8-5.9-11.9-21.9-14.7-37.6c-2-11-4-22.2-4.8-33
		c-1.3-19.3,3.8-36.6,11.8-55.2c11.7-27.3,29.5-46.6,24.1-60.9c-7.8-20.7-49.9-3.3-66.9-23.9c-7.7-9.4-7.1-20.6-6-33.7
		c1.4-15.9,4.5-34.4-5.5-51.9c-5.2-9.1-12.5-14.9-17.7-18.8"/>
	<path class="st28" d="M527.4,432.6c1.5,4-9.4,16.6-20.9,8c-7.8-5.9-11.8-22-14.8-37.7c-2.1-11-4.4-22.2-5.3-33.1
		c-1.7-19.4,3-36.8,10.6-55.8c11.1-27.8,28.7-47.5,23-61.8c-8.2-20.5-49.9-2.4-67.3-22.5c-7.9-9.1-7.6-20.2-6.7-33.4
		c1-15.9,3.8-34.4-6.5-51.8c-5.3-9-12.7-14.7-17.9-18.6"/>
	<path class="st29" d="M533,434.1c1.7,4-8.7,16.5-19.9,7.8c-7.7-5.9-11.7-22.1-14.9-37.8c-2.3-11.1-4.8-22.3-5.9-33.3
		c-2.1-19.4,2.2-37,9.4-56.3c10.6-28.3,27.9-48.5,21.9-62.6c-8.6-20.3-49.9-1.5-67.7-21.2c-8-8.9-8-19.9-7.5-33
		c0.7-15.8,3-34.4-7.5-51.6c-5.5-8.9-12.9-14.6-18.1-18.4"/>
	<path class="st30" d="M538.6,435.5c1.9,3.9-7.9,16.3-19,7.7c-7.6-6-11.6-22.2-15-37.9c-2.4-11.1-5.1-22.3-6.5-33.4
		c-2.5-19.4,1.4-37.2,8.2-56.8c10.1-28.7,27.1-49.4,20.8-63.4c-8.9-20.1-49.9-0.6-68-19.8c-8.2-8.7-8.5-19.6-8.2-32.6
		c0.3-15.8,2.3-34.4-8.4-51.5c-5.6-8.9-13.1-14.4-18.4-18.2"/>
	<path class="st31" d="M544.2,436.9c2.1,3.9-7.2,16.2-18,7.5c-7.4-6-11.5-22.4-15.1-38c-2.6-11.1-5.5-22.4-7.1-33.5
		c-2.9-19.5,0.6-37.4,7-57.3c9.5-29.2,26.2-50.2,19.7-64.2c-9.3-19.8-49.9,0.3-68.4-18.4c-8.4-8.5-8.9-19.3-8.9-32.3
		c0-15.7,1.6-34.3-9.4-51.3c-5.7-8.8-13.2-14.2-18.6-17.9"/>
	<path class="st32" d="M549.8,438.2c2.3,3.9-6.5,16-17.1,7.2c-7.3-6.1-11.4-22.5-15.2-38.1c-2.7-11.2-5.8-22.4-7.7-33.6
		c-3.3-19.5-0.3-37.5,5.8-57.8c8.9-29.6,25.4-51.1,18.5-65c-9.7-19.6-49.8,1.2-68.7-17c-8.6-8.2-9.3-18.9-9.6-31.9
		c-0.4-15.7,0.9-34.3-10.4-51.1c-5.8-8.7-13.4-14.1-18.8-17.7"/>
	<path class="st32" d="M555.4,439.5c2.6,3.9-5.8,15.8-16.1,7c-7.2-6.1-11.4-22.6-15.3-38.2c-2.9-11.2-6.2-22.5-8.3-33.6
		c-3.7-19.5-1.1-37.7,4.6-58.2c8.4-30,24.5-52,17.4-65.7c-10.1-19.4-49.8,2.1-69-15.6c-8.7-8-9.7-18.6-10.3-31.4
		c-0.7-15.6,0.2-34.2-11.3-50.9c-5.9-8.6-13.6-13.9-19-17.5"/>
	<path class="st33" d="M561.1,440.6c2.8,3.9-5.1,15.6-15.2,6.7c-7.1-6.2-11.3-22.8-15.5-38.4c-3-11.3-6.6-22.5-8.9-33.7
		c-4.1-19.5-1.9-37.8,3.4-58.6c7.8-30.5,23.6-52.8,16.2-66.4c-10.4-19.2-49.7,2.9-69.2-14.2c-8.9-7.8-10.1-18.2-11-31
		c-1.1-15.5-0.5-34.2-12.3-50.7c-6.1-8.5-13.8-13.7-19.2-17.3"/>
	<path class="st34" d="M566.8,441.8c3,3.8-4.4,15.4-14.3,6.4c-7-6.3-11.2-22.9-15.6-38.5c-3.2-11.3-6.9-22.5-9.5-33.8
		c-4.5-19.5-2.8-37.9,2.1-59c7.2-30.9,22.7-53.6,15-67.1c-10.8-18.9-49.6,3.8-69.5-12.8c-9-7.5-10.5-17.9-11.7-30.6
		c-1.4-15.4-1.3-34.1-13.2-50.4c-6.2-8.4-13.9-13.5-19.4-17.1"/>
	<path class="st35" d="M572.5,442.8c3.2,3.8-3.7,15.1-13.4,6.1c-6.9-6.4-11.2-23.1-15.7-38.6c-3.3-11.3-7.3-22.6-10.1-33.8
		c-4.8-19.4-3.6-38,0.9-59.4c6.6-31.3,21.8-54.5,13.8-67.8c-11.1-18.7-49.5,4.7-69.7-11.4c-9.2-7.3-10.9-17.5-12.4-30.1
		c-1.8-15.3-2-34-14.2-50.2c-6.3-8.4-14.1-13.4-19.6-16.8"/>
	<path class="st36" d="M578.2,443.7c3.4,3.7-3,14.9-12.6,5.7c-6.8-6.5-11.1-23.3-15.9-38.8c-3.5-11.4-7.7-22.6-10.7-33.8
		c-5.2-19.4-4.4-38.1-0.4-59.7c5.9-31.6,20.8-55.3,12.6-68.5c-11.5-18.4-49.4,5.6-69.8-9.9c-9.3-7-11.3-17.1-13-29.7
		c-2.1-15.2-2.7-33.8-15.1-49.9c-6.4-8.3-14.3-13.2-19.9-16.6"/>
	<path class="st37" d="M584,444.6c3.6,3.7-2.3,14.6-11.7,5.3c-6.7-6.6-11.1-23.4-16-38.9c-3.6-11.4-8.1-22.6-11.3-33.9
		c-5.6-19.4-5.3-38.2-1.6-60c5.3-32,19.9-56,11.4-69.1c-11.8-18.2-49.3,6.4-70-8.5c-9.4-6.8-11.6-16.7-13.7-29.2
		c-2.4-15.1-3.4-33.7-16.1-49.6c-6.5-8.2-14.4-13-20.1-16.4"/>
	<path class="st38" d="M589.8,445.4c3.8,3.6-1.6,14.3-10.8,4.9c-6.6-6.7-11.1-23.6-16.2-39.1c-3.8-11.4-8.4-22.6-12-33.9
		c-6-19.3-6.1-38.2-2.9-60.3c4.7-32.4,18.9-56.8,10.1-69.8c-12.1-17.9-49.1,7.3-70.1-7.1c-9.5-6.6-12-16.3-14.3-28.7
		c-2.8-15-4.1-33.6-17-49.3c-6.6-8.1-14.6-12.8-20.3-16.1"/>
	<path class="st39" d="M595.6,446.1c4,3.6-1,13.9-10,4.5c-6.5-6.8-11.1-23.8-16.4-39.2c-3.9-11.4-8.8-22.6-12.6-33.9
		c-6.4-19.3-7-38.2-4.2-60.6c4-32.7,17.9-57.5,8.8-70.4c-12.5-17.6-49,8.2-70.2-5.7c-9.7-6.3-12.3-15.9-14.9-28.2
		c-3.1-14.9-4.8-33.4-17.9-49c-6.7-8-14.8-12.6-20.5-15.9"/>
	<path class="st39" d="M601.4,446.8c4.2,3.5-0.3,13.6-9.2,4c-6.4-6.9-11-24-16.6-39.4c-4.1-11.4-9.2-22.6-13.2-33.9
		c-6.8-19.2-7.8-38.2-5.5-60.9c3.4-33.1,16.8-58.3,7.5-70.9c-12.8-17.4-48.8,9-70.3-4.3c-9.8-6.1-12.7-15.5-15.5-27.7
		c-3.4-14.7-5.5-33.2-18.9-48.6c-6.9-7.9-14.9-12.4-20.7-15.7"/>
	<path class="st40" d="M607.2,447.3c4.5,3.4,0.3,13.2-8.4,3.6c-6.3-7-11-24.2-16.8-39.5c-4.3-11.5-9.6-22.5-13.8-33.8
		c-7.2-19.2-8.7-38.2-6.8-61.1c2.7-33.4,15.8-59,6.2-71.5c-13.1-17.1-48.6,9.9-70.3-2.8c-9.9-5.8-13-15.1-16.1-27.1
		c-3.8-14.6-6.2-33.1-19.8-48.3c-7-7.8-15.1-12.3-20.8-15.4"/>
	<path class="st41" d="M613.1,447.8c4.7,3.3,1,12.8-7.6,3.1c-6.2-7.1-11-24.4-17-39.7c-4.4-11.5-10-22.5-14.5-33.8
		c-7.6-19.1-9.6-38.2-8.2-61.3c2-33.7,14.7-59.7,4.9-72c-13.4-16.8-48.4,10.7-70.3-1.4c-10-5.5-13.3-14.7-16.7-26.6
		c-4.1-14.5-6.8-32.9-20.7-47.9c-7.1-7.7-15.2-12.1-21-15.2"/>
	<path class="st42" d="M618.9,448.2c4.9,3.3,1.6,12.4-6.8,2.5c-6.1-7.2-11.1-24.6-17.2-39.9c-4.6-11.5-10.4-22.5-15.1-33.8
		c-8-19-10.4-38.2-9.5-61.4c1.3-34,13.6-60.4,3.5-72.5c-13.7-16.5-48.2,11.6-70.3,0c-10.1-5.3-13.6-14.2-17.3-26
		c-4.4-14.3-7.5-32.7-21.6-47.5c-7.2-7.6-15.4-11.9-21.2-14.9"/>
	<path class="st43" d="M624.8,448.4c5.1,3.2,2.2,12-6.1,2c-6.1-7.4-11.1-24.8-17.4-40c-4.8-11.5-10.7-22.4-15.8-33.7
		c-8.4-18.9-11.3-38.1-10.9-61.6c0.6-34.3,12.5-61,2.2-73c-14-16.2-47.9,12.5-70.3,1.5c-10.2-5-13.9-13.8-17.8-25.5
		c-4.7-14.1-8.2-32.4-22.5-47.1c-7.3-7.5-15.5-11.7-21.4-14.7"/>
	<path class="st44" d="M630.7,448.6c5.3,3.1,2.8,11.6-5.3,1.4c-6-7.5-11.1-25-17.7-40.2c-5-11.5-11.1-22.4-16.4-33.6
		c-8.8-18.8-12.2-38-12.2-61.7c-0.1-34.5,11.4-61.7,0.8-73.5c-14.3-15.9-47.7,13.3-70.2,2.9c-10.3-4.7-14.2-13.3-18.4-24.9
		c-5-14-8.9-32.2-23.4-46.7c-7.4-7.4-15.7-11.5-21.6-14.4"/>
	<path class="st45" d="M636.6,448.7c5.5,3,3.4,11.1-4.6,0.8c-5.9-7.6-11.2-25.2-17.9-40.4c-5.1-11.5-11.5-22.3-17.1-33.6
		c-9.2-18.7-13-37.9-13.6-61.8c-0.8-34.8,10.2-62.3-0.6-73.9c-14.6-15.6-47.4,14.2-70.1,4.4c-10.4-4.5-14.5-12.9-18.9-24.3
		c-5.3-13.8-9.6-31.9-24.3-46.2c-7.5-7.3-15.8-11.2-21.8-14.2"/>
	<path class="st46" d="M642.6,448.7c5.7,2.9,4,10.7-3.9,0.2c-5.9-7.8-11.2-25.5-18.2-40.5c-5.3-11.5-11.9-22.3-17.7-33.5
		c-9.6-18.6-13.9-37.8-15-61.8c-1.6-35,9.1-62.9-2.1-74.3c-14.9-15.3-47.1,15-70,5.8c-10.5-4.2-14.8-12.4-19.5-23.7
		c-5.7-13.6-10.3-31.7-25.2-45.7c-7.6-7.1-16-11-22-13.9"/>
	<path class="st46" d="M648.5,448.6c5.9,2.7,4.5,10.2-3.2-0.4c-5.8-7.9-11.3-25.7-18.5-40.7c-5.5-11.5-12.3-22.2-18.4-33.3
		c-10-18.5-14.8-37.7-16.4-61.8c-2.3-35.3,7.9-63.5-3.5-74.7c-15.2-14.9-46.8,15.9-69.9,7.3c-10.5-3.9-15-12-20-23.1
		c-6-13.5-10.9-31.4-26.1-45.2c-7.7-7-16.1-10.8-22.2-13.6"/>
	<path class="st47" d="M654.5,448.4c6.1,2.6,5.1,9.7-2.6-1c-5.8-8.1-11.4-25.9-18.7-40.9c-5.7-11.5-12.7-22.1-19.1-33.2
		c-10.4-18.3-15.7-37.5-17.8-61.8c-3.1-35.5,6.6-64-5-75c-15.5-14.6-46.5,16.8-69.7,8.8c-10.6-3.7-15.3-11.5-20.5-22.5
		c-6.3-13.3-11.6-31.1-27-44.7c-7.8-6.9-16.3-10.6-22.3-13.4"/>
	<path class="st48" d="M660.5,448.1c6.3,2.5,5.6,9.1-2-1.7c-5.8-8.2-11.5-26.1-19.1-41c-5.9-11.5-13.2-22-19.7-33.1
		c-10.8-18.2-16.6-37.3-19.2-61.8c-3.8-35.7,5.4-64.6-6.5-75.3c-15.7-14.3-46.2,17.6-69.5,10.2c-10.7-3.4-15.5-11-21-21.8
		c-6.6-13.1-12.3-30.8-27.9-44.2c-7.9-6.8-16.4-10.4-22.5-13.1"/>
	<path class="st49" d="M666.5,447.6c6.4,2.4,6.2,8.6-1.3-2.4c-5.7-8.4-11.6-26.4-19.4-41.2c-6-11.5-13.6-21.9-20.4-32.9
		c-11.2-18.1-17.5-37.1-20.6-61.7c-4.6-35.9,4.1-65.1-8-75.6c-16-13.9-45.8,18.5-69.2,11.7c-10.7-3.1-15.8-10.5-21.5-21.2
		c-6.9-12.9-12.9-30.5-28.7-43.7c-8-6.7-16.5-10.2-22.7-12.8"/>
	<path class="st50" d="M672.5,447.1c6.6,2.2,6.7,8-0.8-3.1c-5.7-8.6-11.7-26.6-19.7-41.3c-6.2-11.5-14-21.8-21.1-32.7
		c-11.6-17.9-18.3-36.9-22.1-61.6c-5.4-36,2.8-65.6-9.5-75.9c-16.2-13.6-45.4,19.3-68.9,13.2c-10.8-2.8-16-10-21.9-20.5
		c-7.2-12.7-13.6-30.1-29.6-43.1c-8.1-6.6-16.7-9.9-22.9-12.5"/>
	<path class="st51" d="M678.5,446.4c6.8,2.1,7.2,7.5-0.2-3.8c-5.7-8.7-11.9-26.8-20.1-41.5c-6.4-11.5-14.4-21.7-21.8-32.5
		c-12-17.7-19.2-36.7-23.5-61.5c-6.2-36.2,1.5-66-11.1-76.1c-16.5-13.2-45,20.2-68.6,14.6c-10.8-2.5-16.2-9.5-22.4-19.8
		c-7.4-12.4-14.2-29.8-30.5-42.5c-8.2-6.4-16.8-9.7-23-12.2"/>
	<path class="st52" d="M684.5,445.6c7,1.9,7.7,6.9,0.3-4.6c-5.7-8.9-12-27.1-20.4-41.7c-6.6-11.4-14.8-21.6-22.4-32.3
		c-12.4-17.5-20.1-36.4-25-61.3c-7-36.3,0.2-66.5-12.7-76.3c-16.7-12.8-44.6,21-68.3,16.1c-10.9-2.2-16.4-9-22.8-19.1
		c-7.7-12.2-14.9-29.4-31.3-41.9c-8.3-6.3-16.9-9.5-23.2-11.9"/>
	<path class="st53" d="M690.6,444.7c7.2,1.8,8.1,6.3,0.9-5.4c-5.7-9.1-12.2-27.3-20.8-41.8c-6.8-11.4-15.2-21.5-23.1-32.1
		c-12.8-17.4-21-36.1-26.4-61.1c-7.9-36.4-1.2-66.9-14.2-76.5c-17-12.5-44.2,21.9-67.9,17.6c-10.9-2-16.6-8.5-23.2-18.4
		c-8-12-15.5-29-32.2-41.3c-8.4-6.2-17.1-9.2-23.4-11.6"/>
	<path class="st53" d="M696.7,443.6c7.4,1.6,8.6,5.7,1.3-6.1c-5.7-9.2-12.4-27.6-21.2-41.9c-7-11.4-15.7-21.3-23.8-31.9
		c-13.2-17.2-21.9-35.8-27.9-60.9c-8.7-36.5-2.6-67.3-15.9-76.6c-17.2-12.1-43.7,22.7-67.5,19.1c-10.9-1.7-16.8-8-23.7-17.7
		c-8.3-11.7-16.2-28.6-33-40.6c-8.5-6-17.2-9-23.6-11.3"/>
	<path class="st54" d="M703.2,442c7.5,1.4,9.1,5,1.8-6.9c-5.7-9.4-12.7-27.7-21.8-42c-7.3-11.3-16.2-21.1-24.7-31.5
		c-13.7-16.9-23-35.4-29.6-60.5c-9.7-36.5-4.2-67.6-17.8-76.6c-17.5-11.6-43.2,23.7-67,20.9c-10.9-1.3-17-7.4-24.1-16.9
		c-8.6-11.5-16.9-28.1-34-39.8c-8.6-5.9-17.4-8.7-23.8-10.9"/>
	<path class="st55" d="M710,439.8c7.7,1.2,9.5,4.3,2.2-7.8c-5.8-9.5-13.1-27.9-22.6-42c-7.5-11.2-16.8-20.8-25.6-31.1
		c-14.2-16.6-24.1-34.9-31.5-59.9c-10.8-36.5-6.1-67.9-20-76.5c-17.8-11.1-42.5,24.9-66.4,22.8c-11-1-17.2-6.8-24.6-16
		c-9-11.1-17.8-27.5-35.1-38.8c-8.7-5.7-17.6-8.3-24-10.4"/>
	<path class="st56" d="M716.7,437.5c7.9,0.9,10,3.6,2.5-8.6c-5.9-9.7-13.5-28-23.3-41.9c-7.8-11.1-17.3-20.5-26.5-30.6
		c-14.7-16.2-25.2-34.3-33.4-59.3c-11.9-36.5-8-68.1-22.1-76.4c-18.1-10.6-41.8,26-65.7,24.7c-11-0.6-17.4-6.1-25.1-15
		c-9.3-10.8-18.6-27-36.2-37.9c-8.8-5.5-17.7-7.9-24.2-9.9"/>
	<path class="st57" d="M723.3,435.2c8,0.7,10.4,2.8,2.8-9.5c-6-9.8-13.9-28.2-24-41.9c-8.1-11-17.9-20.2-27.3-30.1
		c-15.2-15.9-26.3-33.8-35.2-58.7c-13-36.4-9.8-68.3-24.2-76.2c-18.3-10.1-41.2,27-65,26.5c-11-0.2-17.5-5.5-25.5-14.1
		c-9.6-10.5-19.3-26.4-37.2-36.9c-8.9-5.3-17.9-7.5-24.4-9.4"/>
	<path class="st58" d="M729.8,432.7c8.2,0.5,10.7,2.1,3.1-10.4c-6.1-9.9-14.3-28.4-24.7-41.9c-8.3-10.9-18.4-19.9-28.1-29.6
		c-15.7-15.6-27.3-33.2-36.9-58.1c-14-36.3-11.6-68.5-26.3-76c-18.6-9.6-40.5,28-64.3,28.3c-11,0.1-17.6-4.9-25.9-13.3
		c-9.9-10.2-20-25.8-38.1-36c-9.1-5.1-18-7.2-24.6-9"/>
	<path class="st59" d="M736.2,430.2c8.3,0.2,11.1,1.3,3.3-11.3c-6.2-10.1-14.7-28.5-25.3-41.9c-8.6-10.8-18.9-19.6-28.9-29.2
		c-16.1-15.2-28.3-32.6-38.6-57.5c-15-36.2-13.4-68.6-28.2-75.8c-18.8-9.1-39.8,28.9-63.5,29.9c-10.9,0.5-17.8-4.2-26.2-12.4
		c-10.2-9.9-20.7-25.2-39-35c-9.1-4.9-18.1-6.9-24.8-8.5"/>
	<path class="st60" d="M742.4,427.6c8.5,0,11.4,0.6,3.6-12.2c-6.3-10.3-15-28.7-25.9-41.9c-8.8-10.7-19.3-19.4-29.7-28.7
		c-16.5-14.9-29.3-32-40.3-56.8c-16-36.1-15.1-68.7-30.2-75.5c-19-8.6-39.1,29.8-62.8,31.5c-10.9,0.8-17.8-3.6-26.5-11.5
		c-10.4-9.5-21.3-24.6-39.9-34.1c-9.2-4.7-18.3-6.5-24.9-8.1"/>
	<path class="st60" d="M748.6,425c8.6-0.3,11.7-0.2,3.8-13.1c-6.4-10.4-15.4-28.9-26.5-42c-9.1-10.6-19.8-19.1-30.4-28.2
		c-16.9-14.6-30.2-31.5-41.9-56.1c-17-36-16.8-68.7-32-75.2c-19.1-8.2-38.4,30.7-62,33.1c-10.9,1.1-17.9-3-26.8-10.6
		c-10.7-9.2-22-24.1-40.7-33.2c-9.3-4.6-18.4-6.2-25.1-7.7"/>
	<path class="st61" d="M754.6,422.3c8.8-0.5,11.9-0.9,3.9-14.1c-6.4-10.6-15.8-29.1-27.1-42c-9.3-10.5-20.2-18.8-31.1-27.8
		c-17.3-14.3-31.1-30.9-43.4-55.5c-17.9-35.8-18.4-68.8-33.8-74.9c-19.3-7.7-37.8,31.5-61.2,34.6c-10.8,1.4-18-2.5-27-9.8
		c-10.9-8.9-22.5-23.5-41.4-32.3c-9.4-4.4-18.5-5.9-25.2-7.3"/>
	<path class="st62" d="M760.6,419.6c8.9-0.7,12.2-1.7,4.1-15c-6.5-10.8-16.1-29.3-27.7-42.1c-9.5-10.5-20.7-18.5-31.8-27.3
		c-17.7-14-31.9-30.3-44.9-54.8c-18.8-35.7-20-68.8-35.6-74.6c-19.4-7.3-37.1,32.3-60.4,36c-10.8,1.7-18-1.9-27.2-9
		c-11.1-8.6-23.1-22.9-42.1-31.4c-9.5-4.2-18.6-5.6-25.3-7"/>
	<path class="st63" d="M766.4,416.8c9-1,12.4-2.4,4.2-16c-6.6-10.9-16.4-29.5-28.3-42.1c-9.7-10.4-21.1-18.3-32.5-26.9
		c-18-13.6-32.7-29.7-46.3-54.1c-19.7-35.5-21.5-68.8-37.3-74.3c-19.6-6.8-36.4,33-59.6,37.3c-10.7,2-18-1.3-27.4-8.2
		c-11.3-8.3-23.6-22.3-42.8-30.5c-9.5-4.1-18.7-5.4-25.5-6.6"/>
	<path class="st64" d="M772.2,414.1c9.1-1.2,12.6-3.2,4.3-16.9c-6.7-11.1-16.8-29.7-28.8-42.2c-9.9-10.3-21.5-18-33.1-26.5
		c-18.3-13.3-33.5-29.2-47.7-53.4c-20.5-35.4-23-68.7-38.9-73.9c-19.7-6.4-35.8,33.7-58.8,38.6c-10.6,2.3-18-0.8-27.5-7.4
		c-11.5-8-24.1-21.7-43.4-29.7c-9.6-3.9-18.7-5.1-25.6-6.3"/>
	<path class="st65" d="M777.9,411.4c9.2-1.4,12.8-4,4.4-17.9c-6.8-11.3-17.1-30-29.3-42.3c-10.1-10.2-21.9-17.8-33.7-26
		c-18.7-13-34.3-28.6-49-52.7c-21.4-35.2-24.4-68.7-40.5-73.6c-19.8-6-35.1,34.3-58,39.9c-10.6,2.6-18-0.3-27.7-6.6
		c-11.7-7.6-24.6-21.2-44-28.8c-9.6-3.8-18.8-4.8-25.7-5.9"/>
	<path class="st66" d="M783.5,409.8c9.3-1.6,12.9-4.7,4.5-18.9c-6.9-11.5-17.4-30.2-29.8-42.4c-10.3-10.1-22.2-17.5-34.3-25.6
		c-19-12.7-35-28-50.3-52.1c-22.2-35-25.8-68.7-42-73.2c-19.9-5.6-34.5,35-57.2,41.1c-10.5,2.8-18,0.2-27.8-5.8
		c-11.9-7.3-25-20.6-44.6-28c-9.7-3.6-18.9-4.6-25.7-5.6"/>
	<path class="st67" d="M789,408.5c9.4-1.9,13.1-5.5,4.5-19.8c-7-11.7-17.7-30.4-30.3-42.5c-10.5-10.1-22.6-17.3-34.9-25.2
		c-19.3-12.4-35.7-27.5-51.6-51.4c-23-34.9-27.2-68.6-43.5-72.9c-20-5.2-33.9,35.6-56.4,42.2c-10.4,3.1-17.9,0.7-27.9-5.1
		c-12-7-25.4-20.1-45.1-27.2c-9.7-3.5-18.9-4.4-25.8-5.3"/>
	<path class="st67" d="M794.4,407.2c9.5-2.1,13.2-6.2,4.6-20.8c-7.1-11.9-18-30.7-30.7-42.7c-10.6-10-22.9-17-35.4-24.8
		c-19.5-12.1-36.4-26.9-52.8-50.7c-23.7-34.7-28.5-68.5-45-72.5c-20-4.9-33.3,36.1-55.6,43.3c-10.3,3.3-17.9,1.2-28-4.3
		c-12.2-6.8-25.8-19.5-45.6-26.4c-9.8-3.4-19-4.2-25.9-5.1"/>
	<path class="st68" d="M799.8,405.9c9.6-2.3,13.4-6.9,4.6-21.8c-7.1-12.1-18.3-31-31.2-42.8c-10.8-9.9-23.2-16.8-35.9-24.4
		c-19.8-11.9-37-26.4-53.9-50.1c-24.5-34.5-29.8-68.5-46.4-72.2c-20.1-4.5-32.7,36.6-54.8,44.3c-10.3,3.6-17.8,1.7-28-3.6
		c-12.3-6.5-26.2-19-46.1-25.6c-9.8-3.3-19-4-26-4.8"/>
	<path class="st69" d="M805.1,404.6c9.7-2.5,13.5-7.7,4.6-22.7c-7.2-12.3-18.6-31.2-31.6-43c-10.9-9.9-23.5-16.6-36.4-24.1
		c-20.1-11.6-37.6-25.9-55.1-49.5c-25.2-34.4-31.1-68.4-47.7-71.8c-20.1-4.2-32.1,37.1-54,45.3c-10.2,3.8-17.8,2.2-28.1-2.9
		c-12.4-6.2-26.5-18.5-46.5-24.9c-9.9-3.1-19.1-3.8-26-4.6"/>
	<path class="st70" d="M810.3,403.2c9.8-2.7,13.6-8.4,4.7-23.7c-7.3-12.5-18.8-31.5-32-43.2c-11.1-9.8-23.8-16.4-36.9-23.7
		c-20.3-11.3-38.3-25.4-56.2-48.8c-25.9-34.2-32.3-68.3-49-71.5c-20.2-3.8-31.6,37.6-53.2,46.3c-10.1,4-17.7,2.6-28.1-2.2
		c-12.5-5.9-26.8-18-46.9-24.2c-9.9-3-19.1-3.6-26.1-4.3"/>
	<path class="st71" d="M815.5,401.8c9.9-2.9,13.7-9.1,4.7-24.7c-7.4-12.7-19.1-31.8-32.4-43.4c-11.2-9.8-24.1-16.2-37.4-23.4
		c-20.6-11.1-38.8-24.9-57.2-48.2c-26.6-34-33.5-68.3-50.3-71.2c-20.2-3.5-31,38-52.5,47.2c-10,4.3-17.6,3.1-28.1-1.6
		c-12.6-5.6-27.1-17.5-47.3-23.5c-9.9-2.9-19.1-3.4-26.1-4.1"/>
	<path class="st72" d="M820.6,400.4c10-3.1,13.8-9.8,4.7-25.7c-7.5-13-19.3-32.1-32.8-43.6c-11.4-9.7-24.4-16-37.9-23.1
		c-20.8-10.8-39.4-24.4-58.2-47.6c-27.3-33.9-34.6-68.2-51.5-70.9c-20.2-3.2-30.5,38.5-51.8,48.1c-9.9,4.5-17.5,3.5-28.1-0.9
		c-12.7-5.4-27.4-17-47.7-22.8c-9.9-2.8-19.2-3.2-26.2-3.9"/>
	<path class="st73" d="M825.6,399c10.1-3.3,13.8-10.6,4.6-26.6c-7.5-13.2-19.6-32.4-33.1-43.8c-11.5-9.7-24.7-15.9-38.3-22.7
		c-21-10.6-40-23.9-59.2-47c-27.9-33.7-35.7-68.1-52.7-70.6c-20.3-2.9-30,38.8-51,48.9c-9.8,4.7-17.5,3.9-28.1-0.3
		c-12.8-5.1-27.7-16.5-48-22.1c-10-2.7-19.2-3.1-26.2-3.7"/>
	<path class="st74" d="M830.6,397.6c10.2-3.5,13.9-11.3,4.6-27.6c-7.6-13.4-19.8-32.8-33.5-44c-11.7-9.6-24.9-15.7-38.7-22.4
		c-21.2-10.4-40.5-23.5-60.2-46.5c-28.6-33.6-36.8-68.1-53.9-70.3c-20.3-2.6-29.5,39.2-50.3,49.7c-9.7,4.9-17.4,4.3-28.1,0.3
		c-12.9-4.9-28-16.1-48.4-21.5c-10-2.6-19.2-2.9-26.3-3.5"/>
	<path class="st74" d="M835.5,396.2c10.3-3.7,14-12,4.6-28.6c-7.7-13.6-20-33.1-33.8-44.3c-11.8-9.6-25.2-15.5-39.1-22.2
		c-21.4-10.2-41-23-61.1-45.9c-29.2-33.4-37.8-68-55-70c-20.3-2.3-29,39.6-49.7,50.4c-9.6,5.1-17.3,4.7-28,0.9
		c-13-4.6-28.2-15.6-48.7-20.9c-10-2.6-19.2-2.8-26.3-3.4"/>
	<path class="st75" d="M840.4,394.7c10.4-3.9,14-12.7,4.6-29.6c-7.8-13.9-20.2-33.4-34.1-44.6c-11.9-9.6-25.4-15.4-39.5-21.9
		c-21.6-9.9-41.5-22.6-62-45.4c-29.8-33.3-38.8-67.9-56-69.7c-20.3-2.1-28.5,39.9-49,51.1c-9.5,5.3-17.2,5.1-28,1.5
		c-13.1-4.4-28.4-15.2-48.9-20.3c-10-2.5-19.2-2.7-26.4-3.2"/>
	<path class="st76" d="M845.2,393.3c10.4-4.1,14.1-13.4,4.6-30.5c-7.8-14.1-20.4-33.8-34.4-44.9c-12-9.5-25.7-15.3-39.9-21.6
		c-21.8-9.7-42-22.2-62.9-44.9c-30.3-33.2-39.8-67.9-57.1-69.5c-20.3-1.8-28.1,40.2-48.3,51.8c-9.5,5.4-17.1,5.5-28,2.1
		c-13.1-4.1-28.7-14.8-49.2-19.7c-10-2.4-19.3-2.6-26.4-3.1"/>
	<path class="st77" d="M850,391.8c10.5-4.3,14.1-14.1,4.6-31.5c-7.9-14.4-20.6-34.1-34.7-45.2c-12.1-9.5-25.9-15.1-40.3-21.4
		c-22-9.5-42.4-21.8-63.8-44.4c-30.9-33.1-40.7-67.9-58.1-69.2c-20.3-1.6-27.7,40.5-47.7,52.5c-9.4,5.6-17,5.9-27.9,2.6
		c-13.2-3.9-28.9-14.3-49.5-19.2c-10-2.3-19.3-2.5-26.4-3"/>
	<path class="st78" d="M854.7,390.4c10.6-4.4,14.2-14.7,4.5-32.5c-7.9-14.6-20.8-34.5-35-45.5c-12.3-9.5-26.1-15-40.7-21.2
		c-22.2-9.4-42.9-21.4-64.6-44c-31.4-32.9-41.6-67.9-59-69c-20.3-1.3-27.3,40.8-47.1,53.1c-9.3,5.8-16.9,6.2-27.9,3.2
		c-13.3-3.7-29.1-13.9-49.7-18.6c-10.1-2.3-19.3-2.4-26.5-2.9"/>
	<path class="st79" d="M859.4,389c10.7-4.6,14.2-15.4,4.5-33.4c-8-14.8-21-34.9-35.2-45.8c-12.4-9.5-26.3-14.9-41-21
		c-22.3-9.2-43.3-21-65.4-43.5c-32-32.8-42.5-67.8-60-68.8c-20.3-1.1-26.9,41-46.5,53.7c-9.2,5.9-16.8,6.6-27.8,3.7
		c-13.3-3.5-29.2-13.5-49.9-18.1c-10.1-2.2-19.3-2.3-26.5-2.8"/>
	<path class="st80" d="M864,387.6c10.8-4.8,14.3-16.1,4.5-34.4c-8.1-15.1-21.1-35.3-35.5-46.2c-12.5-9.5-26.5-14.8-41.3-20.8
		c-22.5-9-43.7-20.6-66.2-43.1c-32.5-32.7-43.3-67.8-60.9-68.6c-20.3-0.9-26.5,41.3-45.9,54.3c-9.1,6.1-16.7,6.9-27.7,4.2
		c-13.4-3.3-29.4-13.2-50.2-17.6c-10.1-2.2-19.3-2.2-26.5-2.7"/>
	<path class="st81" d="M868.5,386.2c10.9-5,14.3-16.8,4.5-35.4c-8.1-15.4-21.3-35.7-35.7-46.5c-12.6-9.5-26.7-14.8-41.7-20.6
		c-22.7-8.8-44.1-20.3-66.9-42.7c-33-32.7-44.1-67.9-61.7-68.5c-20.3-0.7-26.1,41.5-45.3,54.8c-9,6.2-16.5,7.2-27.7,4.7
		c-13.4-3.1-29.6-12.8-50.4-17.2c-10.1-2.1-19.3-2.1-26.6-2.6"/>
	<path class="st81" d="M873.1,384.8c11-5.1,14.4-17.4,4.5-36.4c-8.2-15.6-21.4-36.1-35.9-46.9c-12.7-9.5-26.9-14.7-42-20.4
		c-22.8-8.7-44.5-20-67.6-42.3c-33.5-32.6-44.9-67.9-62.6-68.3c-20.3-0.5-25.8,41.7-44.8,55.3c-8.9,6.4-16.4,7.6-27.6,5.2
		c-13.5-2.9-29.7-12.4-50.6-16.7c-10.1-2.1-19.3-2.1-26.6-2.5"/>
	<path class="st82" d="M877.5,383.5c11-5.3,14.4-18.1,4.5-37.3c-8.2-15.9-21.6-36.5-36.1-47.3c-12.7-9.5-27.1-14.6-42.3-20.3
		c-23-8.5-44.9-19.7-68.4-42c-33.9-32.5-45.7-67.9-63.4-68.2c-20.2-0.3-25.5,41.9-44.3,55.8c-8.8,6.5-16.3,7.9-27.5,5.7
		c-13.5-2.7-29.9-12.1-50.7-16.3c-10.1-2-19.4-2-26.6-2.5"/>
	<path class="st83" d="M881.9,382.1c11.1-5.4,14.5-18.7,4.5-38.3c-8.2-16.1-21.7-36.9-36.2-47.7c-12.8-9.5-27.3-14.6-42.6-20.2
		c-23.1-8.4-45.3-19.4-69-41.7c-34.4-32.5-46.4-68-64.2-68.1c-20.2-0.1-25.2,42.1-43.8,56.3c-8.8,6.7-16.2,8.2-27.4,6.2
		c-13.5-2.5-30-11.8-50.9-15.9c-10.1-2-19.4-2-26.6-2.5"/>
	<path class="st84" d="M886.3,380.8c11.2-5.6,14.5-19.4,4.5-39.3c-8.3-16.4-21.8-37.3-36.4-48.1c-12.9-9.5-27.4-14.5-42.9-20.1
		c-23.3-8.3-45.7-19.1-69.7-41.4c-34.8-32.4-47.1-68.1-64.9-68c-20.2,0-24.9,42.3-43.3,56.8c-8.7,6.8-16.1,8.5-27.4,6.6
		c-13.6-2.3-30.1-11.4-51.1-15.5c-10.1-2-19.4-2-26.7-2.4"/>
	<path class="st85" d="M890.6,379.5c11.3-5.7,14.6-20,4.5-40.2c-8.3-16.7-21.9-37.8-36.5-48.6c-13-9.6-27.6-14.5-43.2-20
		c-23.4-8.2-46-18.8-70.4-41.1c-35.3-32.4-47.8-68.2-65.6-68c-20.2,0.2-24.6,42.4-42.9,57.2c-8.6,6.9-16,8.8-27.3,7.1
		c-13.6-2.1-30.3-11.1-51.2-15.2c-10.1-1.9-19.4-1.9-26.7-2.4"/>
	<path class="st86" d="M894.9,378.3c11.4-5.9,14.7-20.6,4.6-41.2c-8.3-16.9-21.9-38.2-36.6-49c-13.1-9.6-27.7-14.5-43.5-19.9
		c-23.5-8.1-46.4-18.6-71-40.8c-35.7-32.4-48.4-68.3-66.3-68c-20.2,0.3-24.3,42.6-42.4,57.6c-8.5,7.1-15.9,9.1-27.2,7.5
		c-13.6-1.9-30.4-10.8-51.4-14.8c-10.1-1.9-19.4-1.9-26.7-2.4"/>
	<path class="st87" d="M899.1,377.1c11.5-6,14.7-21.2,4.6-42.1c-8.3-17.2-22-38.7-36.7-49.5c-13.1-9.6-27.9-14.5-43.7-19.8
		c-23.6-8-46.7-18.4-71.6-40.6c-36.1-32.4-49-68.4-67-68c-20.1,0.5-24.1,42.7-42,58c-8.5,7.2-15.8,9.3-27.2,7.9
		c-13.7-1.8-30.5-10.6-51.5-14.5c-10.1-1.9-19.4-1.9-26.7-2.4"/>
	<path class="st88" d="M903.2,375.9c11.6-6.1,14.8-21.9,4.7-43.1c-8.3-17.5-22-39.2-36.8-50c-13.2-9.7-28-14.5-44-19.8
		c-23.8-7.9-47-18.2-72.2-40.4c-36.5-32.4-49.6-68.5-67.6-68c-20.1,0.6-23.9,42.9-41.6,58.4c-8.4,7.3-15.7,9.6-27.1,8.3
		c-13.7-1.6-30.6-10.3-51.6-14.2c-10.1-1.9-19.4-1.9-26.8-2.4"/>
	<path class="st88" d="M907.3,374.8c11.7-6.3,14.9-22.5,4.8-44.1c-8.3-17.8-22.1-39.7-36.9-50.5c-13.3-9.7-28.2-14.5-44.2-19.8
		c-23.9-7.8-47.4-18-72.8-40.3c-36.8-32.5-50.1-68.7-68.2-68c-20.1,0.7-23.7,43-41.3,58.7c-8.3,7.4-15.6,9.9-27,8.7
		c-13.7-1.5-30.7-10-51.7-13.9c-10.1-1.9-19.4-1.9-26.8-2.5"/>
	<path class="st89" d="M911.4,373.7c11.8-6.4,15-23.1,4.9-45c-8.3-18.1-22.1-40.1-36.9-51c-13.3-9.8-28.3-14.5-44.5-19.8
		c-24-7.7-47.7-17.8-73.4-40.1c-37.2-32.5-50.7-68.9-68.8-68.1c-20.1,0.8-23.5,43.1-40.9,59c-8.2,7.5-15.6,10.1-26.9,9.1
		c-13.8-1.3-30.8-9.8-51.9-13.7c-10.1-1.9-19.4-1.9-26.8-2.5"/>
	<path class="st90" d="M915.4,372.7c11.9-6.5,15.1-23.7,5-46c-8.3-18.4-22.1-40.6-37-51.6c-13.4-9.8-28.4-14.6-44.7-19.8
		c-24.1-7.7-48-17.7-73.9-40c-37.5-32.6-51.2-69.1-69.3-68.2c-20.1,0.9-23.3,43.2-40.6,59.3c-8.2,7.6-15.5,10.4-26.9,9.4
		c-13.8-1.2-30.9-9.6-52-13.5c-10.1-1.9-19.4-2-26.8-2.6"/>
	<path class="st91" d="M919.3,371.7c12-6.6,15.2-24.3,5.1-46.9c-8.3-18.7-22.1-41.2-37-52.1c-13.4-9.9-28.6-14.6-44.9-19.8
		c-24.2-7.6-48.3-17.5-74.4-40c-37.9-32.6-51.6-69.3-69.8-68.4c-20,1-23.2,43.3-40.3,59.6c-8.1,7.7-15.4,10.6-26.8,9.8
		c-13.8-1-31-9.3-52.1-13.3c-10.1-1.9-19.4-2-26.8-2.6"/>
	<path class="st92" d="M923.2,370.8c12.1-6.7,15.3-24.8,5.3-47.9c-8.3-19-22-41.7-36.9-52.7c-13.5-10-28.7-14.7-45.1-19.9
		c-24.3-7.6-48.6-17.4-74.9-39.9c-38.2-32.7-52.1-69.6-70.3-68.6c-20,1.1-23.1,43.3-40.1,59.9c-8.1,7.8-15.3,10.8-26.8,10.1
		c-13.8-0.9-31.1-9.1-52.2-13.1c-10.1-1.9-19.4-2.1-26.9-2.7"/>
	<path class="st93" d="M927,369.9c12.2-6.9,15.4-25.4,5.4-48.8c-8.2-19.3-22-42.2-36.9-53.3c-13.5-10.1-28.8-14.8-45.3-19.9
		c-24.4-7.6-48.8-17.4-75.4-39.9c-38.5-32.9-52.5-69.8-70.8-68.8c-20,1.2-23,43.4-39.9,60.2c-8,7.9-15.2,11.1-26.7,10.5
		c-13.9-0.8-31.1-9-52.3-12.9c-10.1-1.9-19.4-2.1-26.9-2.8"/>
	<path class="st94" d="M930.7,369.1c12.4-7,15.6-26,5.6-49.8c-8.2-19.6-21.9-42.7-36.8-53.9c-13.5-10.1-28.9-14.9-45.5-20
		c-24.5-7.6-49.1-17.3-75.9-40c-38.7-33-52.8-70.1-71.2-69c-20,1.3-22.9,43.5-39.7,60.4c-8,8-15.2,11.3-26.7,10.8
		c-13.9-0.6-31.2-8.8-52.3-12.8c-10.1-1.9-19.4-2.2-26.9-2.9"/>
	<path class="st95" d="M934.4,368.4c12.5-7,15.7-26.5,5.9-50.7c-8.1-19.9-21.8-43.3-36.7-54.5c-13.6-10.2-29-15-45.7-20.1
		c-24.6-7.6-49.4-17.3-76.3-40c-39-33.1-53.2-70.5-71.6-69.3c-20,1.3-22.8,43.5-39.5,60.6c-7.9,8.1-15.1,11.5-26.6,11.1
		c-13.9-0.5-31.3-8.6-52.4-12.7c-10.1-1.9-19.4-2.2-26.9-3"/>
	<path class="st95" d="M938,367.8c12.6-7.1,15.9-27.1,6.1-51.6c-8.1-20.2-21.7-43.9-36.6-55.2c-13.6-10.3-29.1-15.1-45.9-20.3
		c-24.7-7.6-49.6-17.3-76.8-40.2c-39.3-33.3-53.5-70.8-71.9-69.6c-20,1.4-22.8,43.5-39.4,60.8c-7.9,8.2-15.1,11.7-26.6,11.4
		c-13.9-0.4-31.3-8.5-52.5-12.6c-10.1-2-19.4-2.3-26.9-3.1"/>
	<path class="st96" d="M941.5,367.2c12.7-7.2,16.1-27.6,6.4-52.6c-8-20.5-21.6-44.4-36.4-55.8c-13.6-10.4-29.1-15.3-46.1-20.5
		c-24.8-7.6-49.9-17.3-77.2-40.3c-39.5-33.5-53.7-71.2-72.2-69.9c-19.9,1.4-22.7,43.6-39.2,61c-7.8,8.3-15,11.9-26.6,11.7
		c-13.9-0.3-31.4-8.3-52.6-12.6c-10.1-2-19.4-2.4-26.9-3.3"/>
	<path class="st97" d="M944.9,366.7c12.9-7.3,16.3-28.2,6.7-53.5c-7.9-20.8-21.4-45-36.2-56.5c-13.6-10.5-29.2-15.4-46.2-20.6
		c-24.9-7.7-50.1-17.3-77.6-40.5c-39.7-33.7-53.9-71.6-72.5-70.3c-19.9,1.4-22.7,43.6-39.2,61.1c-7.8,8.4-15,12.1-26.6,11.9
		c-14-0.2-31.5-8.2-52.6-12.5c-10.1-2-19.4-2.5-26.9-3.4"/>
	<path class="st98" d="M948.3,366.3c13-7.3,16.5-28.7,7.1-54.4c-7.8-21.2-21.2-45.6-36-57.2c-13.6-10.7-29.3-15.6-46.3-20.9
		c-25-7.7-50.4-17.4-77.9-40.7c-39.9-33.9-54.1-72.1-72.7-70.7c-19.9,1.4-22.8,43.6-39.1,61.3c-7.8,8.4-15,12.3-26.5,12.2
		c-14-0.2-31.5-8.1-52.7-12.5c-10-2.1-19.4-2.6-26.9-3.6"/>
	<path class="st99" d="M951.6,366c13.1-7.4,16.8-29.2,7.4-55.4c-7.7-21.5-21-46.2-35.7-57.9c-13.6-10.8-29.3-15.8-46.5-21.1
		c-25.1-7.8-50.6-17.5-78.3-41c-40.1-34.2-54.3-72.6-72.9-71.2c-19.9,1.4-22.8,43.5-39.1,61.4c-7.8,8.5-14.9,12.5-26.5,12.4
		c-14-0.1-31.6-8.1-52.7-12.6c-10-2.1-19.3-2.7-26.9-3.8"/>
	<path class="st100" d="M954.7,365.7c13.3-7.4,17-29.7,7.9-56.3c-7.5-21.8-20.7-46.8-35.4-58.6c-13.6-10.9-29.4-16-46.6-21.4
		c-25.1-7.9-50.8-17.7-78.6-41.4c-40.2-34.5-54.4-73.1-73.1-71.7c-19.9,1.4-22.9,43.5-39.1,61.5c-7.8,8.6-14.9,12.6-26.6,12.6
		c-14.1,0-31.6-8-52.8-12.6c-10-2.2-19.3-2.9-26.9-4"/>
	<path class="st101" d="M957.8,365.6c13.4-7.5,17.3-30.2,8.3-57.2c-7.4-22.2-20.4-47.5-35.1-59.4c-13.6-11.1-29.4-16.2-46.7-21.7
		c-25.2-8-51-17.8-78.9-41.7c-40.4-34.8-54.4-73.6-73.2-72.3c-19.9,1.4-23,43.5-39.2,61.6c-7.7,8.6-14.9,12.8-26.6,12.8
		c-14.1,0-31.7-8-52.8-12.7c-10-2.2-19.3-3-26.9-4.2"/>
	<path class="st102" d="M960.8,365.6c13.6-7.5,17.6-30.7,8.8-58.1c-7.2-22.5-20.1-48.1-34.7-60.2c-13.6-11.2-29.4-16.4-46.8-22
		c-25.3-8.1-51.2-18-79.2-42.2c-40.5-35.1-54.4-74.2-73.3-72.9c-19.9,1.4-23.1,43.4-39.3,61.6c-7.7,8.7-14.9,12.9-26.6,13
		c-14.1,0.1-31.7-7.9-52.8-12.8c-10-2.3-19.3-3.2-26.9-4.4"/>
	<path class="st102" d="M963.6,365.6c13.7-7.5,18-31.2,9.4-59c-7-22.8-19.7-48.7-34.3-60.9c-13.6-11.4-29.4-16.7-46.8-22.3
		c-25.3-8.2-51.4-18.3-79.4-42.6c-40.6-35.5-54.4-74.8-73.3-73.5c-19.9,1.3-23.2,43.4-39.5,61.7c-7.7,8.8-14.9,13.1-26.6,13.2
		c-14.1,0.1-31.7-7.9-52.8-13c-10-2.4-19.3-3.3-26.9-4.7"/>
	<path class="st103" d="M966.4,365.8c13.9-7.5,18.3-31.6,10-59.8c-6.8-23.2-19.3-49.4-33.8-61.8c-13.5-11.5-29.4-17-46.9-22.7
		c-25.4-8.4-51.5-18.5-79.6-43.2c-40.6-35.9-54.3-75.5-73.2-74.2c-19.9,1.3-23.4,43.3-39.6,61.7c-7.8,8.8-15,13.2-26.7,13.4
		c-14.2,0.2-31.8-8-52.8-13.2c-9.9-2.5-19.3-3.5-26.9-5"/>
	<path class="st104" d="M969,366.1c14.1-7.5,18.7-32,10.7-60.7c-6.6-23.5-18.9-50.1-33.3-62.6c-13.5-11.7-29.4-17.3-46.9-23.2
		c-25.4-8.5-51.7-18.8-79.8-43.8c-40.7-36.3-54.1-76.1-73.1-75c-19.9,1.2-23.6,43.2-39.9,61.7c-7.8,8.8-15,13.3-26.8,13.5
		c-14.2,0.2-31.8-8-52.9-13.4c-9.9-2.5-19.2-3.7-26.9-5.2"/>
	<path class="st105" d="M971.4,366.6c14.3-7.5,19.2-32.4,11.4-61.5c-6.4-23.9-18.4-50.7-32.7-63.4c-13.4-11.9-29.3-17.6-46.9-23.6
		c-25.4-8.7-51.8-19.2-79.9-44.5c-40.7-36.7-53.9-76.9-73-75.8c-19.9,1.1-23.9,43.1-40.2,61.6c-7.8,8.9-15,13.4-26.8,13.6
		c-14.2,0.2-31.8-8.1-52.8-13.7c-9.9-2.6-19.2-3.9-26.8-5.6"/>
	<path class="st106" d="M973.7,367.1c14.4-7.5,19.6-32.8,12.2-62.4c-6.1-24.2-17.9-51.4-32.1-64.3c-13.4-12.1-29.3-17.9-46.9-24.1
		c-25.5-8.9-51.9-19.6-80-45.2c-40.6-37.2-53.6-77.7-72.7-76.7c-19.9,1-24.1,42.9-40.5,61.5c-7.8,8.9-15.1,13.5-26.9,13.7
		c-14.3,0.2-31.8-8.2-52.8-14c-9.9-2.7-19.1-4.1-26.8-5.9"/>
	<path class="st107" d="M975.9,367.8c14.6-7.4,20.1-33.2,13-63.2c-5.8-24.6-17.3-52.1-31.3-65.2c-13.3-12.3-29.2-18.3-46.9-24.7
		c-25.5-9.2-52-20-80.1-46C790,131,777.4,90.3,758.2,91.1c-19.8,0.9-24.5,42.8-40.9,61.4c-7.9,8.9-15.2,13.6-27,13.8
		c-14.3,0.2-31.8-8.3-52.8-14.4c-9.8-2.8-19.1-4.4-26.7-6.2"/>
	<path class="st108" d="M977.8,368.6c14.8-7.4,20.6-33.6,13.9-64c-5.5-24.9-16.6-52.8-30.6-66.1c-13.2-12.5-29.1-18.7-46.8-25.2
		c-25.5-9.4-52.1-20.5-80.1-46.9c-40.5-38.3-52.8-79.4-72.1-78.6c-19.8,0.8-24.8,42.6-41.3,61.3c-7.9,9-15.3,13.7-27.2,13.8
		c-14.3,0.1-31.9-8.5-52.7-14.8c-9.8-3-19-4.6-26.7-6.6"/>
	<path class="st109" d="M979.6,369.6c15-7.3,21.2-33.9,14.9-64.7c-5.1-25.3-15.9-53.5-29.7-67c-13.1-12.8-29-19.1-46.7-25.9
		c-25.5-9.7-52.2-21-80-47.8c-40.3-38.9-52.3-80.3-71.6-79.7c-19.8,0.6-25.2,42.4-41.8,61.1c-8,9-15.4,13.8-27.3,13.9
		c-14.4,0.1-31.9-8.6-52.7-15.2c-9.8-3.1-19-4.9-26.6-7"/>
	<path class="st109" d="M981.1,370.7c15.3-7.2,21.8-34.2,16-65.5c-4.8-25.6-15.1-54.2-28.8-67.9c-12.9-13-28.9-19.6-46.6-26.5
		c-25.5-10-52.2-21.6-79.9-48.9c-40.1-39.6-51.6-81.2-71-80.8c-19.8,0.4-25.6,42.1-42.3,60.8c-8,9-15.5,13.8-27.5,13.9
		c-14.4,0.1-31.8-8.8-52.6-15.7c-9.7-3.2-18.9-5.2-26.5-7.4"/>
	<path class="st110" d="M982.4,371.9c15.5-7.1,22.5-34.4,17.2-66.2c-4.3-26-14.3-54.9-27.7-68.9c-12.8-13.3-28.7-20-46.5-27.2
		c-25.5-10.3-52.2-22.3-79.7-50c-39.9-40.2-50.9-82.2-70.4-82c-19.8,0.2-26,41.9-42.9,60.6c-8.1,9-15.7,13.8-27.6,13.8
		c-14.5,0-31.8-9.1-52.5-16.3c-9.7-3.4-18.8-5.5-26.4-7.8"/>
	<path class="st111" d="M983.5,373.3c15.7-7,23.2-34.6,18.4-66.8c-3.9-26.3-13.4-55.7-26.6-69.8c-12.6-13.5-28.5-20.6-46.3-28
		c-25.4-10.7-52.1-23-79.5-51.2c-39.6-40.9-50.1-83.3-69.6-83.3c-19.8,0-26.5,41.6-43.6,60.2c-8.2,9-15.8,13.8-27.8,13.8
		c-14.5-0.1-31.8-9.4-52.4-16.9c-9.6-3.5-18.8-5.8-26.3-8.3"/>
	<path class="st112" d="M984.3,374.9c15.9-6.8,24-34.8,19.8-67.4c-3.4-26.7-12.4-56.4-25.4-70.8c-12.4-13.8-28.3-21.1-46-28.8
		c-25.4-11.1-52.1-23.8-79.2-52.5c-39.2-41.7-49.2-84.4-68.7-84.6c-19.8-0.2-27.1,41.2-44.3,59.8c-8.3,8.9-16,13.8-28,13.7
		c-14.5-0.2-31.8-9.7-52.2-17.5c-9.5-3.7-18.7-6.1-26.2-8.8"/>
	<path class="st113" d="M984.7,376.6c16.2-6.6,24.8-35,21.3-68c-2.9-27-11.3-57.1-24.1-71.8c-12.2-14.1-28-21.7-45.7-29.7
		c-25.3-11.5-52-24.6-78.8-53.9c-38.8-42.5-48.1-85.6-67.7-86c-19.8-0.5-27.7,40.9-45.1,59.4c-8.4,8.9-16.2,13.8-28.3,13.5
		c-14.6-0.3-31.7-10-52-18.2c-9.5-3.8-18.5-6.5-26-9.3"/>
	<path class="st114" d="M984.8,378.4c16.4-6.4,25.6-35.1,22.8-68.5c-2.3-27.4-10.1-57.8-22.6-72.8c-12-14.4-27.7-22.3-45.4-30.6
		c-25.2-11.9-51.8-25.5-78.3-55.4c-38.3-43.4-46.9-86.8-66.6-87.5c-19.8-0.7-28.3,40.5-46,58.9c-8.5,8.9-16.4,13.7-28.5,13.4
		c-14.6-0.5-31.6-10.4-51.8-19c-9.4-4-18.4-6.9-25.9-9.9"/>
	<path class="st115" d="M984.6,380.4c16.7-6.2,26.5-35.1,24.5-68.9c-1.7-27.7-8.8-58.5-21.1-73.8c-11.7-14.7-27.4-22.9-45-31.6
		c-25-12.4-51.6-26.5-77.7-57c-37.7-44.3-45.6-88-65.3-89.1c-19.8-1.1-29,40-47,58.3c-8.7,8.8-16.7,13.7-28.8,13.2
		c-14.7-0.6-31.5-10.9-51.6-19.9c-9.3-4.2-18.3-7.3-25.7-10.5"/>
	<path class="st116" d="M983.9,382.6c16.9-5.9,27.5-35.1,26.3-69.3c-1-28-7.4-59.1-19.3-74.7c-11.5-15-27-23.5-44.5-32.6
		c-24.9-12.9-51.3-27.5-77-58.7c-37.1-45.2-44.1-89.3-63.9-90.7c-19.8-1.4-29.7,39.5-48,57.6c-8.8,8.7-16.9,13.6-29.1,12.9
		c-14.7-0.8-31.4-11.3-51.3-20.8c-9.2-4.4-18.1-7.7-25.4-11.1"/>
	<path class="st116" d="M982.8,384.9c17.2-5.6,28.6-35,28.3-69.6c-0.3-28.3-5.9-59.8-17.5-75.7c-11.1-15.4-26.5-24.2-43.9-33.7
		c-24.7-13.5-51-28.6-76.2-60.5C837.1,99.2,831,54.8,811.2,53c-19.7-1.8-30.4,38.9-49.1,56.8c-9,8.6-17.2,13.4-29.4,12.6
		c-14.7-1-31.3-11.9-50.9-21.8c-9.1-4.6-17.9-8.1-25.2-11.7"/>
	<path class="st117" d="M981.1,387.3c17.5-5.3,29.7-34.8,30.3-69.8c0.5-28.6-4.3-60.4-15.5-76.6c-10.8-15.7-26-25-43.3-34.9
		c-24.5-14.1-50.6-29.8-75.2-62.4c-35.5-47.2-40.6-92-60.4-94.1c-19.7-2.2-31.3,38.3-50.3,56c-9.2,8.5-17.5,13.2-29.7,12.2
		c-14.8-1.3-31.1-12.4-50.5-22.9c-9-4.8-17.7-8.6-24.9-12.4"/>
	<path class="st118" d="M978.8,389.9c17.7-4.9,30-34.6,32.5-69.8c2-28.8-2.6-61-13.3-77.6c-10.4-16.1-25.5-25.7-42.6-36.1
		c-24.2-14.7-50.1-31.1-74-64.4c-34.5-48.3-38.5-93.4-58.4-96c-19.6-2.6-32.1,37.6-51.5,55c-9.4,8.4-17.8,13-30.1,11.8
		c-14.8-1.5-31-13.1-50.1-24c-8.9-5.1-17.5-9.1-24.5-13.1"/>
	<path class="st119" d="M975.9,392.5c18-4.5,31.3-34.3,34.9-69.7c2.9-29-0.7-61.5-11-78.4c-10-16.4-24.8-26.5-41.7-37.4
		c-23.9-15.4-49.6-32.5-72.7-66.6C851.9,91,849,45.7,829.2,42.6c-19.6-3-33.1,36.8-52.9,53.9c-9.6,8.3-18.2,12.8-30.5,11.3
		c-14.8-1.8-30.7-13.7-49.5-25.2c-8.7-5.3-17.2-9.6-24.2-13.9"/>
	<path class="st120" d="M972,395.6c18.3-3.9,32.8-33.6,37.8-69.3c4.1-29.1,1.7-62-8-79.3c-9.4-16.8-24-27.5-40.6-38.9
		c-23.5-16.2-48.7-34.2-70.8-69.2c-32-50.8-33.3-96.4-53-100.1c-19.5-3.6-34.2,35.7-54.6,52.4c-9.8,8-18.6,12.4-30.9,10.6
		C737,99.5,721.4,87.1,703,74.9c-8.5-5.6-16.8-10.3-23.7-14.8"/>
	<path class="st121" d="M967.9,398.5c18.6-3.3,34.3-33,40.7-68.8c5.2-29.2,4-62.3-5.1-80c-8.8-17.2-23.1-28.4-39.4-40.4
		c-23-17-47.8-35.9-68.9-71.7c-30.5-52.1-30.3-97.9-50-102.2C825.8,31.1,809.8,70,789,86.1c-10.1,7.8-19.1,12-31.3,9.8
		c-14.8-2.6-30-15.5-48-28.4c-8.3-5.9-16.4-10.9-23.1-15.7"/>
	<path class="st122" d="M963.7,401.3c18.8-2.8,35.7-32.3,43.4-68.2c6.3-29.3,6.3-62.6-2.2-80.7c-8.3-17.6-22.2-29.2-38.2-41.8
		c-22.6-17.8-46.9-37.4-67-74.2c-29-53.2-27.3-99.3-46.9-104.1c-19.2-4.8-36.4,33.6-57.7,49.3c-10.3,7.6-19.5,11.6-31.7,9.1
		c-14.8-3-29.6-16.3-47.2-29.8c-8.1-6.2-16.1-11.4-22.6-16.5"/>
	<path class="st123" d="M959.6,404c19-2.2,37.1-31.6,46.1-67.6c7.4-29.3,8.6-62.9,0.7-81.2c-7.7-17.9-21.4-30-37.1-43.2
		c-22.1-18.5-46-38.9-65.1-76.4c-27.5-54.4-24.4-100.5-44-106c-19.1-5.3-37.3,32.6-59.2,47.8c-10.5,7.4-19.9,11.2-32.1,8.5
		c-14.7-3.3-29.3-17.1-46.4-31.2c-7.9-6.5-15.7-12-22-17.3"/>
	<path class="st123" d="M955.6,406.5c19.2-1.7,39.1-30.7,48.7-66.9c7.8-29.5,10.7-63,3.4-81.6c-7.2-18.3-20.5-30.8-35.9-44.4
		c-21.6-19.2-45.1-40.4-63.2-78.6C882.6,79.5,887,33.3,867.6,27.3c-18.9-5.8-38.2,31.5-60.5,46.4c-10.8,7.2-20.3,10.9-32.5,7.8
		C759.9,77.8,745.7,63.6,729,49c-7.7-6.7-15.3-12.5-21.5-18"/>
	<path class="st124" d="M951.6,408.9c19.4-1.2,40.4-30,51.3-66.2c8.8-29.5,12.9-63.1,6.1-82c-6.7-18.5-19.7-31.5-34.8-45.6
		c-21.2-19.8-44.2-41.7-61.4-80.6c-24.7-56.4-18.9-102.7-38.3-109.1c-18.8-6.3-39,30.6-61.7,45c-11,7-20.6,10.5-32.8,7.2
		c-14.7-4-28.5-18.6-44.8-33.6c-7.5-6.9-14.9-13-20.9-18.7"/>
	<path class="st125" d="M947.8,412.7c19.6-0.7,41.6-29.3,53.7-65.5c9.8-29.5,14.9-63.2,8.7-82.2c-6.1-18.8-18.9-32.1-33.6-46.7
		c-20.7-20.4-43.4-43-59.6-82.5c-23.4-57.3-16.4-103.6-35.6-110.6c-18.6-6.7-39.8,29.6-62.8,43.6c-11.1,6.8-21,10.2-33.1,6.6
		c-14.7-4.3-28.2-19.2-44.1-34.7c-7.3-7.1-14.5-13.4-20.4-19.3"/>
	<path class="st126" d="M944.2,416.6c19.8-0.2,42.8-28.7,56-64.8c10.8-29.5,16.8-63.2,11.1-82.5c-5.6-19-18.1-32.7-32.6-47.7
		c-20.3-21-42.5-44.2-57.9-84.3c-22.1-58.1-13.9-104.4-33-111.9c-18.5-7.1-40.5,28.7-63.9,42.3c-11.3,6.6-21.3,9.9-33.4,6.1
		C776,69.2,762.7,54,747.3,38.1c-7.1-7.3-14.1-13.8-19.8-19.9"/>
	<path class="st127" d="M940.9,420.3c19.9,0.3,43.9-28,58.3-64.1c11.7-29.4,18.7-63.1,13.5-82.6c-5.2-19.3-17.3-33.3-31.5-48.7
		c-19.9-21.5-41.7-45.3-56.2-85.9C904,80,913.4,33.7,894.3,25.9C876,18.4,853.2,53.7,829.5,67c-11.5,6.4-21.6,9.6-33.7,5.6
		c-14.6-4.9-27.6-20.4-42.6-36.7c-6.9-7.5-13.8-14.2-19.3-20.5"/>
	<path class="st128" d="M937.8,423.8c20.1,0.7,45-27.4,60.4-63.4c12.6-29.4,20.5-63.1,15.8-82.7c-4.7-19.5-16.6-33.8-30.5-49.6
		c-19.5-22-41-46.3-54.6-87.5C909.1,81,919.5,34.7,900.5,26.4c-18.2-7.9-41.7,27-65.7,40c-11.6,6.3-21.9,9.3-34,5.1
		c-14.6-5.1-27.3-20.9-41.9-37.6c-6.7-7.7-13.4-14.6-18.8-21"/>
	<path class="st129" d="M934.9,427.1c20.2,1.1,46-26.8,62.5-62.8c13.4-29.3,22.2-63,17.9-82.8c-4.3-19.6-15.9-34.3-29.6-50.4
		c-19.1-22.5-40.3-47.3-53.1-88.9C914,82,925.4,35.7,906.6,27.1c-18-8.2-42.2,26.2-66.6,38.9c-11.8,6.1-22.2,9.1-34.3,4.6
		c-14.6-5.3-27-21.4-41.3-38.4c-6.5-7.8-13-14.9-18.3-21.5"/>
	<path class="st130" d="M932.4,430.3c20.3,1.5,47-26.2,64.4-62.2c14.2-29.2,23.8-63,20-82.9c-3.9-19.8-15.2-34.7-28.7-51.1
		c-18.8-22.9-39.6-48.2-51.7-90.3C918.9,83,931.2,36.7,912.4,27.8c-17.9-8.5-42.7,25.5-67.3,37.9c-11.9,6-22.4,8.8-34.5,4.3
		c-14.6-5.5-26.7-21.8-40.7-39.2c-6.4-7.9-12.7-15.2-17.8-21.9"/>
	<path class="st130" d="M930.2,433.4c20.4,1.9,47.9-25.7,66.3-61.6c15-29.2,25.4-62.9,21.9-82.9c-3.5-20-14.6-35.1-27.8-51.9
		c-18.4-23.3-38.9-49-50.4-91.5c-16.6-61.5-3.3-107.7-22-117c-17.8-8.8-43.1,24.8-68,37c-12.1,5.9-22.7,8.6-34.8,3.9
		c-14.6-5.7-26.5-22.2-40.1-39.9c-6.2-8.1-12.4-15.4-17.4-22.3"/>
	<path class="st131" d="M928.3,436.4c20.6,2.2,48.9-25.2,68.1-61c15.7-29.1,26.9-62.8,23.7-82.9c-3.1-20.1-14-35.5-27.1-52.5
		c-18.1-23.7-38.4-49.8-49.2-92.7C928.2,85.1,942.3,39,923.7,29.4c-17.6-9-43.5,24.2-68.6,36.2c-12.2,5.8-22.9,8.5-35,3.6
		c-14.6-5.9-26.3-22.5-39.6-40.5C774.4,20.5,768.4,13,763.5,6"/>
	<path class="st132" d="M926.7,439.2c20.7,2.5,49.7-24.8,69.9-60.5c16.4-29.1,28.2-62.7,25.5-82.9c-2.8-20.2-13.5-35.9-26.3-53.1
		c-17.8-24-37.8-50.6-48.1-93.8c-14.8-62.6,0-108.8-18.5-118.5c-17.5-9.2-43.8,23.6-69.2,35.4c-12.3,5.7-23.1,8.3-35.2,3.3
		C810.1,63,798.5,46.2,785.5,28c-5.9-8.3-11.8-15.9-16.5-23.1"/>
	<path class="st133" d="M925.4,441.9c20.8,2.8,50.6-24.4,71.5-60.1c17-29,29.6-62.6,27.1-83c-2.4-20.4-13-36.2-25.6-53.7
		c-17.6-24.3-37.3-51.2-47.1-94.8c-14.1-63.1,1.5-109.2-17-119.3c-17.4-9.4-44.1,23.1-69.7,34.8c-12.4,5.6-23.4,8.2-35.5,3.1
		c-14.6-6.2-26-23.2-38.7-41.6c-5.8-8.4-11.5-16.1-16.1-23.4"/>
	<path class="st134" d="M924.5,444.6c20.9,3.1,51.4-24,73.1-59.7c17.6-29,30.8-62.6,28.7-83c-2.1-20.5-12.5-36.5-25-54.2
		c-17.3-24.6-36.9-51.9-46.2-95.8C941.7,88.4,957.9,42.2,939.4,32c-17.3-9.6-44.4,22.7-70.1,34.2c-12.5,5.6-23.6,8.1-35.7,2.9
		c-14.6-6.3-25.9-23.4-38.3-42c-5.7-8.4-11.3-16.3-15.8-23.7"/>
	<path class="st135" d="M923.9,447.2c21,3.4,52.2-23.7,74.6-59.4c18.2-28.9,32-62.6,30.1-83c-1.9-20.6-12.1-36.8-24.5-54.7
		c-17.1-24.9-36.6-52.4-45.4-96.6c-12.7-64,4.1-110.2-14.4-120.6c-17.2-9.8-44.6,22.3-70.6,33.7c-12.6,5.5-23.8,8-35.9,2.7
		c-14.6-6.4-25.8-23.6-38-42.4c-5.5-8.5-11.1-16.5-15.4-23.9"/>
	<path class="st136" d="M923.6,449.7c21.1,3.6,52.9-23.5,76-59.1c18.8-28.9,33-62.6,31.4-83.1c-1.6-20.7-11.7-37.1-24-55.2
		c-16.9-25.1-36.2-53-44.7-97.5c-12.2-64.4,5.2-110.6-13.2-121.2C932,23.8,904.4,55.6,878.2,67c-12.7,5.5-24,8-36.2,2.6
		c-14.7-6.5-25.7-23.8-37.7-42.8c-5.4-8.6-10.8-16.6-15.1-24.2"/>
	<path class="st137" d="M923.7,452.1c21.3,3.8,53.6-23.3,77.4-58.9c19.3-28.9,34.1-62.6,32.7-83.1c-1.4-20.8-11.4-37.3-23.5-55.6
		c-16.8-25.3-36-53.5-44.1-98.2c-11.7-64.8,6.2-111-12.2-121.8c-17.1-10-45,21.6-71.3,32.9c-12.8,5.5-24.2,7.9-36.4,2.5
		c-14.7-6.6-25.7-24-37.5-43.1C803.3,18.2,798,10,793.8,2.4"/>
	<path class="st137" d="M924,454.5c21.4,4,54.3-23.1,78.7-58.8c19.8-28.9,35-62.6,33.8-83.2c-1.2-20.9-11.1-37.5-23.2-56
		c-16.7-25.5-35.8-53.9-43.6-99c-11.3-65.2,7-111.5-11.4-122.3c-17.1-10.1-45.1,21.3-71.6,32.7c-12.8,5.5-24.4,8-36.6,2.5
		c-14.8-6.6-25.7-24.1-37.3-43.4c-5.3-8.7-10.5-16.9-14.6-24.6"/>
	<path class="st138" d="M924.7,456.9c21.5,4.2,55-23,79.9-58.7c20.2-29,35.9-62.7,34.9-83.4c-1-21-10.8-37.7-22.8-56.4
		c-16.6-25.7-35.7-54.3-43.3-99.6c-10.9-65.6,7.7-111.9-10.7-122.9c-17-10.2-45.2,21.1-71.8,32.5c-12.9,5.5-24.5,8-36.8,2.5
		c-14.8-6.7-25.7-24.3-37.1-43.6c-5.2-8.7-10.3-17-14.4-24.7"/>
	<path class="st139" d="M925.7,459.1c21.6,4.3,55.7-23,81.1-58.8c20.6-29,36.7-62.8,35.9-83.5c-0.8-21-10.6-37.9-22.6-56.7
		c-16.5-25.9-35.6-54.7-43-100.3c-10.6-66,8.4-112.4-10.1-123.4c-17-10.2-45.3,21-72.1,32.4c-13,5.5-24.7,8-37.1,2.5
		c-14.9-6.7-25.7-24.3-37.1-43.8c-5.1-8.8-10.2-17.1-14.2-24.9"/>
	<path class="st140" d="M927.1,461.4c21.8,4.4,56.3-23,82.2-58.9c21-29.1,37.4-62.9,36.7-83.7c-0.7-21.1-10.5-38.1-22.4-57
		c-16.4-26-35.6-55-42.8-100.8c-10.4-66.3,8.9-112.8-9.6-123.9c-17-10.2-45.4,20.9-72.3,32.4c-13,5.6-24.9,8.1-37.3,2.6
		c-15-6.7-25.8-24.4-37-43.9c-5.1-8.8-10-17.2-14-25.1"/>
	<path class="st141" d="M928.7,463.6c21.9,4.5,56.9-23.1,83.2-59.1c21.4-29.2,38.1-63.1,37.5-83.9c-0.6-21.2-10.3-38.3-22.3-57.3
		c-16.4-26.1-35.6-55.3-42.8-101.3c-10.3-66.6,9.2-113.3-9.3-124.5c-17-10.3-45.4,20.9-72.4,32.5c-13.1,5.6-25,8.2-37.5,2.7
		c-15.1-6.7-25.9-24.4-37-44c-5-8.8-9.9-17.3-13.8-25.2"/>
	<path class="st142" d="M930.7,465.7c22,4.6,57.4-23.2,84.2-59.3c21.7-29.3,38.7-63.3,38.2-84.2c-0.5-21.3-10.2-38.5-22.2-57.6
		c-16.4-26.3-35.7-55.6-42.8-101.8c-10.2-67,9.5-113.8-9.1-124.9c-17-10.2-45.5,20.9-72.5,32.6c-13.2,5.7-25.1,8.4-37.7,2.9
		c-15.1-6.7-26-24.4-37.1-44.1c-5-8.8-9.8-17.3-13.7-25.3"/>
	<path class="st143" d="M933,467.8c22.2,4.7,58-23.4,85.1-59.7c22-29.4,39.3-63.5,38.8-84.5c-0.4-21.4-10.2-38.6-22.2-57.8
		c-16.5-26.3-35.8-55.8-43-102.3c-10.2-67.3,9.6-114.2-9-125.4c-17-10.2-45.5,20.9-72.6,32.8c-13.2,5.8-25.3,8.5-37.9,3.1
		C857,67.4,846,49.6,835,29.9c-4.9-8.9-9.8-17.4-13.6-25.4"/>
	<path class="st144" d="M935.6,469.8c22.3,4.7,58.5-23.6,86-60.2c22.2-29.6,39.7-63.8,39.4-84.8c-0.4-21.5-10.2-38.8-22.2-58
		c-16.6-26.4-36.1-56-43.2-102.7c-10.3-67.6,9.6-114.7-9.1-125.9c-17.1-10.2-45.5,21-72.7,33.1c-13.2,5.9-25.4,8.7-38.1,3.3
		c-15.3-6.6-26.4-24.3-37.3-44.1c-4.9-8.9-9.7-17.4-13.5-25.5"/>
	<path class="st144" d="M938.6,471.8c22.5,4.7,59-23.9,86.8-60.7c22.5-29.8,40.1-64.2,39.8-85.2c-0.4-21.5-10.2-38.9-22.3-58.2
		c-16.6-26.5-36.3-56.1-43.6-103c-10.5-67.9,9.5-115.2-9.3-126.4c-17.1-10.1-45.4,21.2-72.7,33.5c-13.3,6-25.5,8.9-38.4,3.6
		c-15.5-6.5-26.6-24.3-37.5-44c-4.9-8.9-9.7-17.5-13.5-25.5"/>
	<path class="st145" d="M941.9,473.7c22.6,4.7,59.5-24.3,87.5-61.4c22.7-30,40.5-64.5,40.1-85.6c-0.4-21.6-10.3-39-22.5-58.4
		c-16.8-26.5-36.7-56.2-44.1-103.3c-10.7-68.2,9.3-115.8-9.7-126.8c-17.2-10-45.4,21.4-72.7,34c-13.3,6.1-25.6,9.2-38.6,3.9
		c-15.6-6.4-26.8-24.1-37.8-43.9c-4.9-8.9-9.7-17.5-13.5-25.6"/>
	<path class="st146" d="M945.5,475.6c22.8,4.6,60-24.8,88.2-62.1c22.8-30.2,40.7-65,40.3-86.1c-0.4-21.7-10.4-39.1-22.7-58.5
		c-16.9-26.5-37.1-56.2-44.7-103.5c-11-68.4,8.9-116.3-10.2-127.3c-17.2-9.9-45.3,21.6-72.6,34.5C910.4,78.9,898,82,885,76.8
		c-15.7-6.3-27-24-38.1-43.8c-4.9-8.9-9.7-17.5-13.5-25.6"/>
	<path class="st147" d="M949.5,477.3c23,4.5,60.4-25.3,88.7-62.9c23-30.5,40.9-65.4,40.5-86.6c-0.4-21.8-10.5-39.2-23-58.6
		c-17.1-26.5-37.5-56.3-45.4-103.7c-11.4-68.7,8.4-116.8-10.8-127.7c-17.3-9.8-45.2,21.9-72.6,35.1c-13.3,6.4-25.8,9.8-39,4.7
		c-15.8-6.2-27.3-23.8-38.4-43.6c-5-8.8-9.7-17.5-13.5-25.6"/>
	<path class="st148" d="M953.8,479c23.2,4.4,60.8-25.9,89.3-63.9c23.1-30.8,41-65.9,40.5-87.1c-0.5-21.9-10.7-39.3-23.4-58.7
		c-17.3-26.5-38.1-56.2-46.3-103.9c-11.8-68.9,7.8-117.4-11.6-128.1c-17.4-9.7-45,22.2-72.4,35.8c-13.3,6.6-25.9,10.1-39.1,5.1
		c-16-6-27.6-23.6-38.8-43.4c-5-8.8-9.8-17.5-13.6-25.6"/>
	<path class="st149" d="M958.4,480.6c23.3,4.3,61.1-26.5,89.7-64.9c23.1-31.1,41.1-66.5,40.5-87.7c-0.6-21.9-11-39.4-23.8-58.8
		c-17.6-26.5-38.6-56.2-47.2-103.9c-12.4-69.2,7-117.9-12.5-128.5c-17.5-9.5-44.9,22.6-72.2,36.6c-13.3,6.8-26,10.4-39.3,5.6
		c-16.1-5.9-28-23.4-39.2-43.1c-5-8.8-9.8-17.4-13.7-25.6"/>
	<path class="st150" d="M963.5,482.2c23.5,4.2,61.4-27.2,90-66.1c23.1-31.4,41-67.1,40.3-88.4c-0.7-22-11.3-39.4-24.3-58.8
		c-17.8-26.4-39.3-56-48.3-104c-13-69.4,6.1-118.5-13.6-128.9c-17.6-9.4-44.7,23.1-72,37.4c-13.3,7-26,10.8-39.5,6.1
		c-16.3-5.7-28.3-23.1-39.7-42.8c-5.1-8.8-9.9-17.4-13.8-25.6"/>
	<path class="st151" d="M968.9,483.6c23.7,4,61.7-28,90.3-67.3c23.1-31.8,40.9-67.8,40-89.1c-0.9-22.1-11.6-39.5-24.9-58.8
		c-18.1-26.3-40-55.9-49.5-103.9c-13.7-69.5,5-119-14.8-129.3c-17.7-9.2-44.4,23.6-71.7,38.4c-13.3,7.2-26,11.3-39.6,6.7
		c-16.4-5.5-28.7-22.8-40.3-42.4c-5.1-8.7-10-17.4-14-25.6"/>
	<path class="st151" d="M974.7,484.8c23.9,3.8,61.9-28.9,90.5-68.7c23.1-32.2,40.7-68.5,39.7-89.8c-1-22.2-12-39.5-25.6-58.8
		c-18.5-26.2-40.8-55.6-50.8-103.8c-14.5-69.7,3.9-119.5-16.2-129.6c-17.9-9-44.2,24.1-71.4,39.4c-13.2,7.4-26,11.7-39.8,7.4
		c-16.6-5.2-29.1-22.5-40.8-42c-5.2-8.7-10.1-17.3-14.2-25.5"/>
	<path class="st152" d="M980.8,486c24.1,3.5,62.1-29.9,90.5-70.2c23-32.6,40.4-69.3,39.2-90.6c-1.2-22.2-12.4-39.5-26.3-58.7
		c-18.8-26.1-41.6-55.3-52.2-103.6c-15.3-69.8,2.5-120.1-17.7-129.9c-18-8.7-43.9,24.7-71,40.5c-13.2,7.7-26,12.2-39.9,8.1
		c-16.7-5-29.5-22.1-41.5-41.5c-5.3-8.6-10.3-17.2-14.4-25.4"/>
	<path class="st153" d="M987.4,487c24.3,3.2,62.3-30.9,90.5-71.8c22.8-33.1,39.9-70.1,38.5-91.5c-1.5-22.3-12.9-39.5-27.1-58.6
		c-19.2-25.9-42.5-55-53.8-103.3c-16.3-69.9,1-120.6-19.4-130.1C998,23.2,972.6,57,945.6,73.4c-13.1,7.9-26,12.7-40,8.8
		c-16.9-4.7-30-21.6-42.1-41c-5.4-8.6-10.4-17.1-14.6-25.3"/>
	<path class="st154" d="M994.4,487.8c24.5,2.9,62.3-32.1,90.3-73.6c22.6-33.6,39.4-70.9,37.8-92.3c-1.7-22.4-13.4-39.5-27.9-58.4
		c-19.7-25.7-43.5-54.6-55.5-102.9c-17.3-70-0.7-121.1-21.3-130.3c-18.3-8.2-43.2,26.1-70,42.9c-13,8.2-25.9,13.3-40.1,9.6
		c-17.1-4.4-30.5-21.2-42.8-40.4c-5.5-8.5-10.6-17-14.9-25.2"/>
	<path class="st155" d="M1001.8,488.5c24.7,2.6,62.4-33.3,90-75.4c22.4-34.1,38.8-71.8,36.9-93.3c-2-22.4-14-39.4-28.8-58.2
		c-20.1-25.5-44.5-54.1-57.3-102.5c-18.5-70-2.5-121.6-23.4-130.5c-18.4-7.8-42.8,26.8-69.4,44.3c-12.9,8.5-25.8,13.8-40.1,10.4
		c-17.2-4.1-30.9-20.6-43.6-39.7c-5.6-8.4-10.8-16.9-15.2-25.1"/>
	<path class="st156" d="M1009.7,488.9c24.9,2.2,62.3-34.6,89.6-77.4c22-34.6,38.1-72.8,35.9-94.2c-2.4-22.5-14.7-39.3-29.8-57.9
		c-20.6-25.2-45.6-53.5-59.3-101.9c-19.7-70-4.5-122-25.6-130.5c-18.6-7.5-42.3,27.6-68.7,45.7c-12.8,8.8-25.7,14.5-40.1,11.3
		c-17.4-3.8-31.5-20.1-44.4-39c-5.7-8.4-11.1-16.8-15.6-24.9"/>
	<path class="st157" d="M1018,489.1c25,1.8,62.2-36,89.1-79.5c21.7-35.2,37.3-73.8,34.7-95.2c-2.7-22.5-15.3-39.2-30.9-57.6
		c-21.1-24.9-46.8-52.8-61.4-101.2c-21-70-6.7-122.4-28-130.5c-18.7-7.1-41.8,28.4-67.9,47.2c-12.7,9.1-25.6,15.1-40.1,12.3
		c-17.6-3.4-32-19.4-45.2-38.2c-5.8-8.3-11.3-16.6-15.9-24.7"/>
	<path class="st158" d="M1026.7,489.7c25.2,1.3,62-37.4,88.3-81.7c21.3-35.8,36.3-74.8,33.3-96.3c-3.1-22.5-16.1-39-32.1-57.2
		c-21.7-24.6-48-52.1-63.6-100.4c-22.5-69.9-9-122.8-30.6-130.5c-18.9-6.7-41.2,29.3-67,48.8c-12.6,9.5-25.4,15.8-40.1,13.3
		c-17.7-3-32.5-18.7-46-37.3c-6-8.2-11.6-16.5-16.3-24.5"/>
	<path class="st158" d="M1035.9,491.3c25.4,0.8,61.7-39,87.4-84.1c20.8-36.4,35.2-75.9,31.9-97.3c-3.5-22.6-16.9-38.8-33.3-56.8
		c-22.2-24.2-49.3-51.3-65.9-99.4c-24-69.7-11.6-123.1-33.4-130.3c-19.1-6.3-40.6,30.2-66,50.4c-12.4,9.8-25.1,16.5-40,14.4
		c-17.9-2.6-33.1-18-46.9-36.3c-6.1-8-11.9-16.3-16.8-24.3"/>
	<path class="st159" d="M1045.6,492.7c25.6,0.2,61.3-40.7,86.4-86.5c20.2-37,34-77,30.2-98.4c-4-22.6-17.7-38.6-34.6-56.2
		c-22.8-23.8-50.6-50.3-68.4-98.3c-25.6-69.4-14.3-123.3-36.4-130c-19.2-5.9-39.9,31.2-64.9,52.2c-12.2,10.2-24.9,17.3-39.8,15.5
		c-18-2.1-33.6-17.2-47.9-35.2c-6.3-7.9-12.2-16.1-17.2-24"/>
	<path class="st160" d="M1055.8,493.9c25.7-0.3,61-42.4,85.1-89.1c19.7-37.6,32.6-78.1,28.4-99.5c-4.5-22.6-18.6-38.3-36-55.6
		c-23.5-23.3-52-49.3-71-97.1c-27.4-69.1-17.2-123.4-39.5-129.6c-19.4-5.4-39.1,32.2-63.7,53.9c-12,10.6-24.6,18-39.6,16.7
		c-18.1-1.6-34.2-16.3-48.8-34.1c-6.5-7.8-12.5-15.8-17.7-23.7"/>
	<path class="st161" d="M1066.4,494.9c25.9-1,60.4-44.2,83.7-91.8c18.9-38.3,31.1-79.3,26.4-100.6c-5-22.5-19.6-38-37.4-54.9
		c-24.1-22.8-53.5-48.1-73.7-95.6c-29.2-68.7-20.4-123.4-42.8-129c-19.5-4.8-38.3,33.2-62.3,55.8c-11.7,11-24.2,18.8-39.4,17.9
		C902.5,95.6,886,81.3,871,63.9c-6.6-7.6-12.8-15.6-18.2-23.3"/>
	<path class="st162" d="M1077.5,495.7c26-1.7,59.6-46.1,82-94.6c18.2-39,29.4-80.5,24.2-101.7c-5.5-22.5-20.6-37.6-38.9-54.1
		c-24.8-22.2-55-46.8-76.5-94c-31.1-68.2-23.7-123.4-46.4-128.3c-19.7-4.3-37.4,34.3-60.9,57.7c-11.4,11.4-23.8,19.7-39,19.2
		c-18.4-0.5-35.3-14.4-50.8-31.5c-6.8-7.5-13.2-15.3-18.8-22.9"/>
	<path class="st163" d="M1089,496.1c26.1-2.4,58.8-48.1,80.1-97.4c17.3-39.7,27.6-81.6,21.8-102.8c-6.1-22.4-21.6-37.2-40.5-53.2
		c-25.5-21.6-56.5-45.4-79.4-92.2c-33.1-67.6-27.1-123.1-50.1-127.4c-19.8-3.7-36.4,35.4-59.2,59.6c-11.1,11.8-23.3,20.5-38.7,20.6
		c-18.5,0-35.8-13.3-51.7-30c-7-7.3-13.6-15-19.4-22.5"/>
	<path class="st164" d="M1101,496.3c26.1-3.1,57.8-50.2,77.9-100.4c16.3-40.4,25.6-82.8,19.2-103.8c-6.7-22.3-22.7-36.7-42.1-52.3
		c-26.2-20.9-58-43.9-82.4-90.1c-35.2-66.9-30.8-122.8-53.9-126.4c-19.9-3.1-35.3,36.5-57.5,61.6c-10.8,12.2-22.8,21.4-38.2,22
		c-18.6,0.7-36.4-12.2-52.7-28.4c-7.2-7.1-14-14.6-20-22"/>
	<path class="st165" d="M1113.4,496.1c26.2-4,56.7-52.3,75.6-103.4c15.3-41.2,23.4-84,16.5-104.9c-7.4-22.2-23.8-36.1-43.8-51.1
		c-26.9-20.2-59.6-42.2-85.4-87.9c-37.4-66-34.7-122.3-57.9-125.1c-20.1-2.4-34.1,37.7-55.5,63.6c-10.4,12.6-22.2,22.3-37.6,23.4
		c-18.6,1.3-36.9-11-53.7-26.8c-7.4-6.9-14.4-14.2-20.6-21.5"/>
	<path class="st165" d="M1126.2,495.5c26.2-4.8,55.4-54.5,72.9-106.4c14.2-41.9,21.1-85.1,13.5-105.8c-8.1-22.1-25-35.5-45.5-49.9
		c-27.6-19.4-61.1-40.4-88.6-85.4c-39.6-65.1-38.7-121.6-62.1-123.7c-20.1-1.8-32.8,38.9-53.5,65.7c-10,13.1-21.5,23.2-37,24.9
		c-18.6,2-37.3-9.7-54.7-25c-7.6-6.7-14.8-13.8-21.2-21"/>
	<path class="st166" d="M1139.4,494.5c26.2-5.7,54-56.7,70-109.5c13-42.5,18.6-86.2,10.4-106.7c-8.8-21.9-26.2-34.8-47.3-48.6
		c-28.3-18.5-62.7-38.5-91.7-82.7c-41.9-64-42.8-120.7-66.4-122c-20.2-1-31.5,40-51.2,67.7c-9.6,13.5-20.8,24.2-36.3,26.4
		c-18.6,2.7-37.8-8.3-55.6-23.1c-7.8-6.4-15.2-13.4-21.8-20.4"/>
	<path class="st167" d="M1152.8,493.1c26.1-6.6,52.4-58.9,66.8-112.6c11.7-43.2,16-87.2,7.1-107.5c-9.5-21.7-27.4-34-49-47.1
		c-29-17.6-64.3-36.4-94.9-79.8c-44.3-62.8-47.1-119.7-70.8-120c-20.3-0.3-30,41.2-48.8,69.7c-9.1,13.9-20,25.1-35.5,27.9
		c-18.6,3.4-38.2-6.9-56.5-21.1c-8-6.2-15.6-12.9-22.5-19.7"/>
	<path class="st168" d="M1166.4,491.1c26-7.6,50.6-61.2,63.4-115.7c10.3-43.9,13.2-88.2,3.6-108.2c-10.3-21.4-28.7-33.2-50.8-45.5
		c-29.7-16.6-65.8-34.2-98.1-76.6c-46.7-61.4-51.5-118.4-75.3-117.9C989,27.7,980.7,69.5,963,98.9c-8.6,14.4-19.1,26-34.5,29.5
		c-18.6,4.2-38.6-5.4-57.3-19c-8.2-5.9-16-12.4-23.2-19"/>
	<path class="st169" d="M1180.3,488.7c25.9-8.6,48.7-63.5,59.6-118.7c8.9-44.5,10.2-89.1-0.1-108.8c-11-21.1-29.9-32.3-52.6-43.8
		c-30.4-15.6-67.3-31.8-101.2-73.2c-49.1-59.9-56.1-116.9-79.8-115.4c-20.3,1.2-26.9,43.4-43.5,73.6c-8.1,14.8-18.2,26.9-33.5,31
		c-18.5,5-38.9-3.9-58.1-16.8c-8.4-5.6-16.5-11.9-23.8-18.2"/>
	<path class="st170" d="M1194.1,485.8c25.7-9.6,46.6-65.8,55.7-121.7c7.3-45,7.2-89.9-3.9-109.3c-11.8-20.8-31.1-31.3-54.3-42
		c-31-14.4-68.7-29.3-104.3-69.6c-51.6-58.2-60.7-115.1-84.4-112.7c-20.2,2.1-25.2,44.4-40.6,75.5c-7.5,15.2-17.2,27.8-32.4,32.6
		c-18.3,5.7-39.1-2.3-58.8-14.6c-8.6-5.3-16.9-11.3-24.4-17.4"/>
	<path class="st171" d="M1207.9,482.3c25.4-10.6,44.4-68,51.5-124.6c5.7-45.6,4-90.6-7.8-109.6c-12.6-20.4-32.4-30.2-56.1-40
		c-31.7-13.2-70-26.7-107.4-65.7c-54-56.4-65.3-113.2-89-109.8c-20.1,2.9-23.4,45.4-37.5,77.3c-6.9,15.5-16.1,28.7-31.2,34.1
		c-18.2,6.5-39.3-0.7-59.5-12.2c-8.8-5-17.3-10.7-25.1-16.6"/>
	<path class="st172" d="M1221.6,478.3c25.1-11.7,42-70.2,47-127.3c4.1-46,0.7-91.2-11.8-109.8c-13.4-20-33.6-29-57.7-37.9
		c-32.2-12-71.3-23.9-110.3-61.6c-56.4-54.5-69.9-110.9-93.5-106.6c-20,3.7-21.5,46.4-34.4,79c-6.2,15.9-15,29.5-29.9,35.6
		c-17.9,7.4-39.4,1-60-9.8c-8.9-4.7-17.7-10.1-25.7-15.7"/>
	<path class="st172" d="M1235.1,473.7c24.8-12.7,39.5-72.3,42.3-130c2.4-46.4-2.8-91.7-16-109.8c-14.2-19.5-34.8-27.8-59.4-35.7
		c-32.8-10.7-72.5-21.1-113.1-57.4c-58.7-52.4-74.6-108.5-98-103.1c-19.9,4.6-19.6,47.3-31.1,80.6c-5.6,16.2-13.8,30.3-28.5,37.1
		c-17.7,8.2-39.5,2.7-60.5-7.3c-9.1-4.3-18-9.5-26.3-14.8"/>
	<path class="st173" d="M1248.1,468.6c24.4-13.8,36.8-74.3,37.5-132.5c0.6-46.8-6.2-92-20.2-109.7c-14.9-19-36-26.5-60.9-33.5
		c-33.3-9.4-73.6-18.2-115.8-52.9c-61-50.2-79.2-105.8-102.5-99.4c-19.7,5.4-17.6,48.1-27.7,82c-4.9,16.5-12.6,31.1-27,38.5
		c-17.4,9-39.4,4.5-60.8-4.7c-9.3-4-18.4-8.8-26.9-13.8"/>
	<path class="st174" d="M1260.7,463c24-14.8,34-76.3,32.5-134.8c-1.2-47.1-9.8-92.2-24.4-109.4c-15.7-18.5-37.1-25.1-62.4-31.1
		c-33.8-8.1-74.5-15.2-118.3-48.3c-63.3-47.9-83.7-103-106.8-95.5c-19.4,6.2-15.6,48.8-24.2,83.4c-4.2,16.8-11.3,31.8-25.4,39.9
		c-17.1,9.8-39.3,6.2-61.1-2.1c-9.4-3.6-18.7-8.1-27.4-12.8"/>
	<path class="st175" d="M1272.7,456.8c23.5-15.9,31.1-78.1,27.3-136.9c-3-47.3-13.4-92.3-28.6-108.9c-16.5-18-38.2-23.7-63.8-28.7
		c-34.2-6.7-75.3-12.2-120.6-43.6c-65.4-45.5-88.1-99.9-110.9-91.4c-19.2,7.1-13.5,49.5-20.6,84.5c-3.5,17.1-10,32.4-23.8,41.2
		c-16.7,10.6-39.1,8-61.2,0.4c-9.5-3.2-19-7.4-27.9-11.8"/>
	<path class="st176" d="M1284.2,450.2c41.4-30.5,24.9-211-10.8-247.1c-40.2-40.5-106.1-13-187.8-65c-67.5-42.9-92.4-96.6-114.9-87.2
		c-28.1,11.7,2.1,99.2-39.2,128c-23.3,16.3-59.6,5.8-89.6-7.7"/>
</g>
</svg>
